<svg width="58" height="69" viewBox="0 0 58 69" fill="none" xmlns="http://www.w3.org/2000/svg">
<g clip-path="url(#clip0_818_2677)">
<path fill-rule="evenodd" clip-rule="evenodd" d="M28.9652 0.00286865C15.6461 0.00286865 4.86914 10.7798 4.86914 24.0989C4.86914 34.7685 11.7435 43.7553 21.3389 46.9418C22.5205 47.1566 22.9859 46.4406 22.9859 45.7961C22.9859 45.2232 22.9501 43.3256 22.9501 41.3206C16.8993 42.4305 15.3239 39.8526 14.8584 38.4921C14.572 37.8118 13.4263 35.6636 12.388 35.0907C11.5287 34.6253 10.3471 33.5153 12.3522 33.4795C14.2498 33.4795 15.6103 35.2339 16.0758 35.95C18.224 39.602 21.697 38.5995 23.0933 37.955C23.2724 36.3797 23.9168 35.3413 24.5971 34.7327C19.2623 34.124 13.6411 32.0474 13.6411 22.8458C13.6411 20.1963 14.572 18.048 16.1116 16.3653C15.8967 15.7566 15.0375 13.2861 16.3622 9.95636C16.3622 9.95636 18.3672 9.34769 22.9859 12.4268C24.9193 11.8898 26.9602 11.6391 29.001 11.6391C31.0776 11.6391 33.1184 11.8898 35.0518 12.4268C39.6348 9.31189 41.6756 9.95636 41.6756 9.95636C43.0003 13.2861 42.141 15.7566 41.8904 16.3653C43.43 18.048 44.3609 20.1963 44.3609 22.8458C44.3609 32.0832 38.7397 34.124 33.3691 34.7327C34.2642 35.4846 35.016 36.9167 35.016 39.1724C35.016 42.3947 34.9802 45.0084 34.9802 45.7961C34.9802 46.4406 35.4099 47.1924 36.6272 46.9418C46.1511 43.7553 53.0612 34.7327 53.0612 24.0989C53.0612 10.7798 42.2484 0.00286865 28.9652 0.00286865Z" fill="black"/>
<path fill-rule="evenodd" clip-rule="evenodd" d="M11.0634 60.1177H6.48051V62.4807C6.48051 62.6239 6.55212 62.6955 6.69533 62.6955H8.55714V65.6315C8.55714 65.6315 8.16329 65.7747 6.98176 65.7747C5.58541 65.7747 3.6878 65.2734 3.6878 61.0486C3.6878 56.8237 5.69282 56.2508 7.55463 56.2508C9.20161 56.2508 9.88188 56.5373 10.3473 56.6805C10.4905 56.7163 10.598 56.5731 10.598 56.4657L11.1708 54.1742C11.1708 54.1026 11.135 54.031 11.0634 53.9952C10.4189 54.1026 9.30902 53.4581 6.51631 53.4581C3.29396 53.4581 0 54.8545 0 61.4424C0 68.0303 3.79521 68.997 6.98176 68.997C9.63125 68.997 11.2066 67.8871 11.2066 67.8871C11.2782 67.8513 11.2782 67.7439 11.2782 67.7081V60.3683C11.2782 60.2251 11.1708 60.1177 11.0634 60.1177ZM35.9471 54.2816C35.9471 54.1384 35.7323 54.1384 35.7323 54.1384H33.3692C33.3334 54.1384 33.226 54.1742 33.226 54.2816V59.509H29.0012V54.2816C29.0012 54.1384 28.8938 54.031 28.7505 54.031H26.4949C26.3517 54.0668 26.2801 54.1026 26.2801 54.2458V68.281C26.2801 68.3884 26.3875 68.4958 26.4949 68.4958H28.7863C28.9296 68.4958 29.0012 68.3884 29.0012 68.281V62.1943H33.2618L33.226 68.281C33.226 68.3884 33.3334 68.4958 33.4767 68.4958H35.7323C35.8397 68.4958 35.9471 68.3884 35.9471 68.281V54.2816ZM16.1834 56.1434C16.1834 55.1409 15.3957 54.3532 14.429 54.3532C13.4623 54.3532 12.6746 55.1409 12.6746 56.1434C12.6746 57.1101 13.4623 57.8978 14.429 57.8978C15.3957 57.8978 16.1834 57.1101 16.1834 56.1434ZM16.0043 65.4883V58.9361C16.0043 58.7929 15.8969 58.6855 15.7895 58.6855H13.0684C12.9252 58.6855 12.8178 58.8287 12.8178 58.9361V68.3526C12.8178 68.639 12.9968 68.7106 13.2116 68.7106H15.6821C15.9327 68.7106 16.0043 68.5674 16.0043 68.3526V65.4883ZM46.2945 58.7213H43.5734C43.466 58.7213 43.3585 58.8287 43.3585 58.9361V65.9179C43.3585 65.9179 42.6783 66.4192 41.7116 66.4192C40.709 66.4192 40.4584 65.9895 40.4584 65.0228V58.9361C40.4584 58.8287 40.351 58.7213 40.2436 58.7213H37.4867C37.3793 58.7213 37.2719 58.8287 37.2719 58.9361V65.4883C37.2719 68.3168 38.8472 68.997 41.0313 68.997C42.8215 68.997 44.2536 68.0303 44.2536 68.0303C44.2536 68.0303 44.2894 68.5316 44.3252 68.6032C44.361 68.6748 44.4327 68.7464 44.5401 68.7464L46.2945 68.7106C46.4019 68.7106 46.5093 68.6032 46.5093 68.4958V58.9361C46.5093 58.8287 46.4019 58.7213 46.2945 58.7213ZM52.8108 66.4192C51.8799 66.3834 51.2354 65.9537 51.2354 65.9537V61.4424C51.2354 61.4424 51.8441 61.0844 52.6318 61.0128C53.5985 60.9053 54.5294 61.2276 54.5294 63.519C54.5294 65.9537 54.0997 66.455 52.8108 66.4192ZM53.6343 58.1842C52.1305 58.1842 51.0922 59.0793 51.0922 59.0793V54.2816C51.0922 54.1384 50.9848 54.031 50.8416 54.031H48.3353V68.281C48.3353 68.3884 48.4427 68.4958 48.5859 68.4958H50.4835C50.5551 68.4958 50.6267 68.46 50.6625 68.3526C50.6983 68.281 50.77 67.7081 50.77 67.7081C50.77 67.7081 51.8799 68.7822 53.9923 68.7822C56.4986 68.7822 57.8949 67.5291 57.8949 63.1252C57.8949 58.7571 55.6393 58.1842 54.0997 58.1842H53.6343ZM24.2751 58.4707H22.6639V55.7854C22.6639 55.678 22.5923 55.6064 22.4849 55.6064H19.6922C19.5847 55.6064 19.5489 55.678 19.5489 55.7854V58.5423C19.5489 58.5423 18.0452 58.7213 17.9736 58.7571C17.902 58.7571 17.8303 58.8287 17.8303 58.9361V60.6547C17.8303 60.7979 17.9378 60.9053 18.0452 60.9053H19.4773V65.0944C19.4773 68.2452 21.6972 68.5316 23.1651 68.5316C23.8454 68.5316 24.6331 68.3168 24.7763 68.281C24.8479 68.2452 24.9195 68.1735 24.9195 68.0661V66.1327C24.9195 66.0253 24.8121 65.9179 24.6689 65.9179C24.5615 65.9179 24.2751 65.9537 23.9528 65.9537C22.9503 65.9537 22.5923 65.4883 22.5923 64.8796V60.9053H24.6331V58.9361C24.6331 58.7571 24.4899 58.4707 24.2751 58.4707Z" fill="black"/>
</g>
<defs>
<clipPath id="clip0_818_2677">
<rect width="57.8949" height="69" fill="white"/>
</clipPath>
</defs>
</svg>
