<svg width="116" height="37" viewBox="0 0 116 37" fill="none" xmlns="http://www.w3.org/2000/svg">
<g clip-path="url(#clip0_818_2705)">
<path d="M14.4333 12.9447V16.8332H23.7269C23.4437 19.0135 22.7159 20.6122 21.5953 21.7328C20.2372 23.0909 18.1178 24.5769 14.4181 24.5769C8.69636 24.5769 4.22313 19.9606 4.22313 14.2236C4.22313 8.48669 8.69636 3.87034 14.4181 3.87034C17.0286 3.83674 19.5464 4.83728 21.4218 6.65354L24.1623 3.91297C22.8882 2.63125 21.3684 1.61998 19.694 0.939758C18.0196 0.259539 16.2251 -0.075623 14.4181 -0.0456371C6.57698 -0.0456371 -0.015625 6.34903 -0.015625 14.181C-0.015625 22.0129 6.57698 28.4076 14.4181 28.4076C18.6538 28.4076 21.8481 27.016 24.345 24.4246C26.906 21.8637 27.7129 18.2431 27.7129 15.3351C27.7248 14.5183 27.6564 13.7024 27.5089 12.899L14.4333 12.9447Z" fill="#4285F4"/>
<path d="M39.3453 9.78381C34.2722 9.78381 30.1309 13.6419 30.1309 18.9678C30.1309 24.248 34.2722 28.1518 39.3453 28.1518C44.4184 28.1518 48.5597 24.2632 48.5597 18.9678C48.5597 13.6724 44.4184 9.78381 39.3453 9.78381ZM39.3453 24.5311C36.5621 24.5311 34.1686 22.2382 34.1686 18.9678C34.1686 15.6974 36.5712 13.4044 39.3453 13.4044C42.1194 13.4044 44.5219 15.6639 44.5219 18.9678C44.5219 22.2717 42.1285 24.5311 39.3453 24.5311Z" fill="#EA4335"/>
<path d="M84.5218 11.8392H84.3787C83.4651 10.7643 81.7386 9.78381 79.5431 9.78381C74.9602 9.78381 70.959 13.782 70.959 18.9678C70.959 24.1536 74.9572 28.1518 79.5431 28.1518C81.7416 28.1518 83.4804 27.1712 84.3787 26.0659H84.5218V27.3448C84.5218 30.8527 82.6399 32.7346 79.6223 32.7346C77.1557 32.7346 75.6241 30.9654 74.9907 29.4611L71.4797 30.9197C72.142 32.5315 73.2706 33.9089 74.7208 34.8751C76.1709 35.8413 77.8766 36.3525 79.6192 36.343C84.3452 36.343 88.3464 33.5598 88.3464 26.7784V10.2528H84.5218V11.8392ZM79.8902 24.5311C77.107 24.5311 74.9907 22.159 74.9907 18.9678C74.9907 15.7278 77.1222 13.4044 79.8902 13.4044C82.6582 13.4044 84.7898 15.7765 84.7898 19.0013C84.7898 22.226 82.643 24.5311 79.8902 24.5311Z" fill="#4285F4"/>
<path d="M59.9097 9.78381C54.8366 9.78381 50.6953 13.6419 50.6953 18.9678C50.6953 24.248 54.8366 28.1518 59.9097 28.1518C64.9828 28.1518 69.1242 24.2632 69.1242 18.9678C69.1242 13.6724 64.9707 9.78381 59.9097 9.78381ZM59.9097 24.5311C57.1265 24.5311 54.7331 22.2382 54.7331 18.9678C54.7331 15.6974 57.1357 13.4044 59.9097 13.4044C62.6838 13.4044 65.0864 15.6639 65.0864 18.9678C65.0864 22.2717 62.6777 24.5311 59.9097 24.5311Z" fill="#FBBC05"/>
<path d="M91.5117 0.377563H95.4703V28.1518H91.5117V0.377563Z" fill="#34A853"/>
<path d="M107.716 24.5311C105.661 24.5311 104.208 23.5993 103.258 21.7479L115.542 16.6748L115.131 15.6304C114.373 13.5749 112.034 9.78076 107.275 9.78076C102.515 9.78076 98.6113 13.4958 98.6113 18.9647C98.6113 24.117 102.5 28.1487 107.716 28.1487C109.228 28.1554 110.718 27.7879 112.053 27.0792C113.388 26.3704 114.527 25.3423 115.368 24.0865L112.238 22.0007C111.194 23.5232 109.772 24.5311 107.716 24.5311ZM107.433 13.2278C109.062 13.2278 110.454 14.0652 110.91 15.2497L102.613 18.6785C102.622 14.8204 105.356 13.2308 107.445 13.2308L107.433 13.2278Z" fill="#EA4335"/>
</g>
<defs>
<clipPath id="clip0_818_2705">
<rect width="115.552" height="36.34" fill="white"/>
</clipPath>
</defs>
</svg>
