<svg width="39" height="52" viewBox="0 0 39 52" fill="none" xmlns="http://www.w3.org/2000/svg">
<path d="M19.7101 39.0342C17.8052 39.0342 16.255 37.4339 16.2418 35.4508V35.4371V35.3277H12.7079V35.4371C12.7604 39.4581 15.9397 42.6722 19.8021 42.6175C23.5856 42.5628 26.6466 39.3761 26.6992 35.4371V35.3277H23.1652C23.1784 35.3687 23.1784 35.3961 23.1784 35.4371C23.1784 37.4203 21.6281 39.0342 19.7101 39.0342ZM12.9181 15.3456C10.133 15.3456 7.87336 17.698 7.87336 20.5976C7.87336 23.4971 10.133 25.8495 12.9181 25.8495C15.7032 25.8495 17.9628 23.4971 17.9628 20.5976C17.9628 17.698 15.7032 15.3456 12.9181 15.3456ZM11.3153 20.6112C11.3153 19.6949 12.0248 18.9426 12.905 18.929C13.7852 18.929 14.5077 19.6675 14.5208 20.5839C14.5208 21.5002 13.8114 22.2525 12.9312 22.2662C12.0379 22.2662 11.3285 21.5276 11.3153 20.6112ZM4.43138 11.3382C14.1399 8.13781 17.8446 6.14097 19.513 5.15623C21.1815 6.14097 24.8731 8.13781 34.5947 11.3382C34.5947 12.4871 35.2121 47.4045 19.513 47.3771C3.81392 47.3908 4.41824 12.4871 4.43138 11.3382ZM19.513 51.9999C39.7971 52.0547 38.9957 9.45081 38.9957 7.98737C26.4364 3.84324 21.6544 1.25828 19.513 0C17.3454 1.24461 12.5765 3.82956 0.00409441 7.98737C0.00409441 9.45081 -0.784145 52.0547 19.513 51.9999ZM21.1421 18.7101V22.2388H30.9031V18.7101H21.1421Z" fill="#FF6600"/>
</svg>
