<svg width="187" height="40" viewBox="0 0 187 40" fill="none" xmlns="http://www.w3.org/2000/svg">
<path d="M66.0285 23.0334L64.9142 26.1905H64.8213C64.6356 25.4786 64.2951 24.3953 63.738 23.0953L57.7641 8.08323H51.9141V32.0096H55.7831V17.2452C55.7831 16.3166 55.7831 15.2642 55.7522 13.9642C55.7212 13.3142 55.6593 12.819 55.6284 12.4476H55.7212C55.9069 13.3761 56.1236 14.0571 56.2784 14.4904L63.4594 31.9477H66.1832L73.3023 14.3357C73.4571 13.9333 73.6119 13.1285 73.7666 12.4476H73.8595C73.7666 14.2119 73.7047 15.7904 73.6738 16.75V31.9168H77.7905V8.02132H72.1571L66.0285 23.0334ZM81.6905 14.769H85.7143V31.9168H81.6905V14.769ZM83.7334 7.52608C83.0524 7.52608 82.4953 7.7737 82.031 8.20704C81.5667 8.64037 81.3191 9.19752 81.3191 9.87848C81.3191 10.5285 81.5667 11.0856 82.031 11.519C82.4953 11.9523 83.0524 12.169 83.7334 12.169C84.4143 12.169 85.0024 11.9214 85.4358 11.519C85.9001 11.0856 86.1477 10.5285 86.1477 9.87848C86.1477 9.22848 85.9001 8.67133 85.4358 8.20704C85.0334 7.7737 84.4453 7.52608 83.7334 7.52608ZM99.9835 14.6142C99.2406 14.4595 98.4668 14.3666 97.724 14.3666C95.8978 14.3666 94.2263 14.769 92.8334 15.5738C91.4406 16.3785 90.3263 17.4928 89.6144 18.8857C88.8715 20.3095 88.5001 21.95 88.5001 23.8381C88.5001 25.4786 88.8715 26.9334 89.5834 28.2644C90.2953 29.5644 91.2858 30.6168 92.6168 31.3287C93.8858 32.0406 95.3716 32.412 97.043 32.412C98.9621 32.412 100.603 32.0096 101.903 31.2668L101.934 31.2358V27.5215L101.779 27.6453C101.191 28.0787 100.51 28.4501 99.8287 28.6668C99.1168 28.9144 98.4668 29.0382 97.9097 29.0382C96.3001 29.0382 95.0311 28.5739 94.1335 27.5525C93.2049 26.562 92.7406 25.2001 92.7406 23.4977C92.7406 21.7334 93.2049 20.3405 94.1644 19.319C95.1239 18.2976 96.393 17.7714 97.9406 17.7714C99.2406 17.7714 100.572 18.2048 101.779 19.0714L101.934 19.1952V15.2642L101.903 15.2333C101.376 15.0166 100.788 14.769 99.9835 14.6142ZM113.262 14.4904C112.272 14.4904 111.343 14.8 110.538 15.45C109.857 16.0071 109.393 16.8119 108.991 17.7714H108.96V14.769H104.936V31.9168H108.96V23.1572C108.96 21.6714 109.269 20.4333 109.95 19.5357C110.631 18.6071 111.498 18.1428 112.55 18.1428C112.922 18.1428 113.293 18.2357 113.757 18.2976C114.191 18.4214 114.5 18.5452 114.717 18.7L114.872 18.8238V14.8L114.779 14.769C114.5 14.5833 113.943 14.4904 113.262 14.4904ZM124.219 14.3976C121.403 14.3976 119.143 15.2333 117.565 16.8738C115.955 18.5143 115.181 20.7738 115.181 23.6215C115.181 26.2834 115.986 28.4501 117.534 30.0287C119.081 31.5763 121.186 32.3811 123.817 32.3811C126.572 32.3811 128.769 31.5454 130.348 29.8739C131.958 28.2025 132.731 25.9739 132.731 23.2191C132.731 20.4952 131.989 18.3286 130.472 16.75C129.017 15.1714 126.881 14.3976 124.219 14.3976ZM127.438 27.5834C126.696 28.5429 125.519 29.0072 124.065 29.0072C122.61 29.0072 121.434 28.5429 120.598 27.5215C119.762 26.562 119.36 25.1691 119.36 23.4048C119.36 21.5786 119.793 20.1857 120.598 19.1952C121.434 18.2048 122.579 17.7095 124.034 17.7095C125.458 17.7095 126.572 18.1738 127.377 19.1333C128.181 20.0929 128.615 21.4857 128.615 23.3119C128.553 25.1691 128.212 26.6239 127.438 27.5834ZM141.708 21.8881C140.439 21.3619 139.634 20.9595 139.262 20.6191C138.953 20.3095 138.798 19.8762 138.798 19.319C138.798 18.8548 138.984 18.3905 139.448 18.0809C139.912 17.7714 140.439 17.6166 141.212 17.6166C141.893 17.6166 142.605 17.7405 143.286 17.9262C143.967 18.1119 144.586 18.3905 145.082 18.7619L145.236 18.8857V15.1095L145.143 15.0785C144.679 14.8928 144.06 14.7071 143.317 14.5523C142.574 14.4285 141.893 14.3666 141.336 14.3666C139.417 14.3666 137.839 14.8309 136.6 15.8523C135.362 16.8119 134.774 18.1119 134.774 19.6286C134.774 20.4333 134.898 21.1453 135.177 21.7334C135.455 22.3215 135.858 22.8786 136.415 23.3429C136.972 23.7762 137.777 24.2715 138.891 24.7358C139.82 25.1381 140.531 25.4477 140.965 25.6953C141.398 25.9429 141.677 26.2215 141.893 26.4382C142.048 26.6858 142.141 26.9953 142.141 27.3977C142.141 28.5429 141.274 29.1001 139.51 29.1001C138.829 29.1001 138.117 28.9763 137.281 28.6977C136.446 28.4191 135.672 28.0167 135.022 27.5525L134.867 27.4286V31.3596L134.96 31.3906C135.548 31.6692 136.26 31.8549 137.127 32.0715C137.993 32.2263 138.767 32.3501 139.448 32.3501C141.522 32.3501 143.224 31.8858 144.431 30.8644C145.67 29.8739 146.32 28.6048 146.32 26.9644C146.32 25.8191 146.01 24.7977 145.329 24.0239C144.431 23.281 143.317 22.5072 141.708 21.8881ZM156.936 14.3976C154.12 14.3976 151.86 15.2333 150.282 16.8738C148.703 18.5143 147.898 20.7738 147.898 23.6215C147.898 26.2834 148.703 28.4501 150.251 30.0287C151.798 31.5763 153.903 32.3811 156.534 32.3811C159.289 32.3811 161.486 31.5454 163.065 29.8739C164.675 28.2025 165.448 25.9739 165.448 23.2191C165.448 20.4952 164.705 18.3286 163.189 16.75C161.734 15.1714 159.598 14.3976 156.936 14.3976ZM160.124 27.5834C159.382 28.5429 158.205 29.0072 156.751 29.0072C155.265 29.0072 154.12 28.5429 153.284 27.5215C152.448 26.562 152.046 25.1691 152.046 23.4048C152.046 21.5786 152.479 20.1857 153.284 19.1952C154.12 18.2048 155.265 17.7095 156.72 17.7095C158.113 17.7095 159.258 18.1738 160.063 19.1333C160.867 20.0929 161.301 21.4857 161.301 23.3119C161.301 25.1691 160.898 26.6239 160.124 27.5834ZM186.96 18.0809V14.769H182.906V9.69277L182.782 9.72372L178.944 10.869L178.851 10.8999V14.769H172.784V12.6023C172.784 11.6118 173.032 10.838 173.465 10.3428C173.898 9.84753 174.548 9.59991 175.353 9.59991C175.91 9.59991 176.498 9.72372 177.148 10.0023L177.303 10.0952V6.5975L177.21 6.56655C176.653 6.38083 175.91 6.25702 174.951 6.25702C173.744 6.25702 172.691 6.53559 171.732 6.99988C170.772 7.52608 170.06 8.23799 169.534 9.19752C169.008 10.1261 168.729 11.1785 168.729 12.3856V14.769H165.913V18.05H168.729V31.9168H172.784V18.0809H178.851V26.9025C178.851 30.5239 180.553 32.3501 183.958 32.3501C184.515 32.3501 185.103 32.2573 185.66 32.1644C186.249 32.0406 186.682 31.8858 186.929 31.762L186.96 31.7311V28.4191L186.806 28.5429C186.558 28.6977 186.341 28.8215 185.97 28.9144C185.66 29.0072 185.382 29.0382 185.165 29.0382C184.36 29.0382 183.803 28.8525 183.401 28.3882C183.029 27.9548 182.844 27.2429 182.844 26.1905V18.0809H186.96Z" fill="#737373"/>
<path d="M0.0390625 0.0355225H19.013V19.0095H0.0390625V0.0355225Z" fill="#F25022"/>
<path d="M20.9941 0.0355225H39.9681V19.0095H20.9941V0.0355225Z" fill="#7FBA00"/>
<path d="M0.0390625 20.9904H19.013V39.9644H0.0390625V20.9904Z" fill="#00A4EF"/>
<path d="M20.9941 20.9904H39.9681V39.9644H20.9941V20.9904Z" fill="#FFB900"/>
</svg>
