<svg width="217" height="43" viewBox="0 0 217 43" fill="none" xmlns="http://www.w3.org/2000/svg">
<path d="M74.369 29.4247C74.9351 28.8856 75.6089 27.8074 75.5281 26.1632C75.3664 22.6321 71.8892 22.2278 69.598 21.9313C66.7139 21.6078 66.2557 21.2844 66.2287 20.4488C66.2287 19.3436 67.7382 18.8045 69.0859 18.8584C70.7571 18.9393 72.3744 19.2627 73.9647 19.8018L74.8812 16.9446C73.0213 16.4055 71.1075 16.109 69.1937 16.0282C66.0939 15.9473 63.2367 17.3759 63.3176 20.4757C63.3715 24.2224 66.9565 24.6267 69.2746 24.8693C71.9162 25.1928 72.6439 25.4623 72.6978 26.271C72.7248 26.864 72.6978 28.4813 68.9511 28.1848C67.3069 28.023 65.7166 27.5648 64.2341 26.837L62.9941 29.4247C64.881 30.2872 66.9295 30.7994 69.005 30.8802C70.5954 31.015 72.9135 30.9341 74.369 29.4247ZM85.124 30.9341C87.9542 30.9341 90.7305 29.7751 90.7305 29.7751L89.9758 27.2144C89.9758 27.2144 87.496 28.1848 85.2318 28.1848C82.3207 28.1848 80.8651 26.3518 80.8651 24.5728H91.5122V22.8747C91.5122 22.3356 91.4583 16.0282 84.9892 16.0282C78.9783 16.0282 77.8192 21.2304 77.7923 23.3329V23.4407C77.7923 25.3815 78.547 30.9341 85.124 30.9341ZM88.6281 22.0391H80.919C80.919 22.0391 81.2694 18.9123 85.0161 18.9123C88.8168 18.8854 88.6281 22.0391 88.6281 22.0391ZM98.1161 30.6916V21.6617C98.1161 20.6644 99.41 19.2897 100.704 19.2897H105.717V16.2708H101.135C99.4908 16.2438 98.0892 17.4298 97.8735 19.0741L97.7118 16.2708H94.9085V30.6646L98.1161 30.6916ZM117.038 30.6916L121.621 16.2977H118.521L114.72 27.8883L111.324 16.2977H108.062L112.429 30.6916H117.038ZM130.65 30.9341C133.481 30.9341 136.257 29.7751 136.257 29.7751L135.502 27.2144C135.502 27.2144 133.022 28.1848 130.758 28.1848C127.847 28.1848 126.392 26.3518 126.392 24.5728H137.039V22.8747C137.039 22.3356 136.985 16.0282 130.516 16.0282C124.505 16.0282 123.346 21.2304 123.319 23.3329V23.4407C123.319 25.3815 124.074 30.9341 130.65 30.9341ZM134.155 22.0391H126.446C126.446 22.0391 126.796 18.9123 130.543 18.9123C134.343 18.8854 134.155 22.0391 134.155 22.0391ZM143.643 30.6916V21.6887C143.643 20.6913 144.936 19.3167 146.23 19.3167H151.244V16.2977H146.662C145.017 16.2708 143.616 17.4568 143.4 19.101L143.238 16.2977H140.408V30.6916H143.643ZM164.883 30.6916V27.6726H158.953V10.5294H151.271V13.171H155.88V30.6646H164.883V30.6916ZM174.182 30.9341C177.013 30.9341 179.789 29.7751 179.789 29.7751L179.034 27.2144C179.034 27.2144 176.554 28.1848 174.29 28.1848C171.379 28.1848 169.923 26.3518 169.923 24.5728H180.571V22.8747C180.571 22.3356 180.517 16.0282 174.048 16.0282C168.037 16.0282 166.878 21.2304 166.851 23.3329V23.4407C166.824 25.3815 167.578 30.9341 174.182 30.9341ZM177.659 22.0391H169.95C169.95 22.0391 170.301 18.9123 174.048 18.9123C177.848 18.8854 177.659 22.0391 177.659 22.0391ZM194.156 29.4247C194.722 28.8856 195.396 27.8074 195.315 26.1632C195.153 22.6321 191.676 22.2278 189.385 21.9313C186.501 21.6078 186.042 21.2844 186.015 20.4488C186.015 19.3436 187.498 18.8045 188.873 18.8584C190.517 18.9393 192.161 19.2627 193.724 19.8018L194.641 16.9446C192.781 16.4055 190.867 16.109 188.953 16.0282C185.854 15.9473 182.996 17.3759 183.077 20.4757C183.131 24.2224 186.716 24.6267 189.034 24.8693C191.676 25.1928 192.404 25.4623 192.458 26.271C192.485 26.864 192.458 28.4813 188.711 28.1848C187.067 28.023 185.476 27.5648 183.994 26.837L182.754 29.4247C184.641 30.2872 186.689 30.7994 188.765 30.8802C190.382 31.015 192.673 30.9341 194.156 29.4247ZM208.927 29.4247C209.493 28.8856 210.167 27.8074 210.086 26.1632C209.924 22.6321 206.447 22.2278 204.156 21.9313C201.272 21.6078 200.814 21.2844 200.787 20.4488C200.787 19.3436 202.269 18.8045 203.644 18.8584C205.315 18.9393 206.932 19.2627 208.523 19.8018L209.439 16.9446C207.579 16.4055 205.665 16.109 203.725 16.0282C200.625 15.9473 197.768 17.3759 197.849 20.4757C197.902 24.2224 201.487 24.6267 203.806 24.8693C206.447 25.1928 207.175 25.4623 207.229 26.271C207.256 26.864 207.229 28.4813 203.482 28.1848C201.838 28.023 200.248 27.5648 198.765 26.837L197.525 29.4247C199.412 30.2872 201.46 30.7994 203.536 30.8802C205.153 31.015 207.471 30.9341 208.927 29.4247Z" fill="black"/>
<path d="M19.3277 13.1172L21.511 6.72888H7.11719V13.1172H19.3277ZM44.6921 13.1172V6.72888H28.3575L26.282 13.1172H44.6921ZM15.6079 24.3034L17.5217 17.9151H7.11719V24.3034H15.6079ZM44.7191 24.3034V17.9151H24.2604L22.3197 24.3034H44.7191ZM11.6186 36.2982L13.5055 29.91H7.11719V36.2982H11.6186ZM44.6921 36.2982V29.91H20.4059L18.3034 36.2982H44.6921Z" fill="#FD5750"/>
</svg>
