<?xml version="1.0" encoding="utf-8"?><svg xmlns="http://www.w3.org/2000/svg" xmlns:xlink="http://www.w3.org/1999/xlink"><symbol class="aah-6 aaw-6" viewBox="0 0 24 24" id="arrow-down" xmlns="http://www.w3.org/2000/svg">
    <path stroke-linecap="round" stroke-linejoin="round" stroke-width="2" d="M19 9l-7 7-7-7"/>
</symbol><symbol viewBox="0 0 16 14" id="arrow-left" xmlns="http://www.w3.org/2000/svg">
    <path fill-rule="evenodd" clip-rule="evenodd" d="M7.707 13.707a1 1 0 01-1.414 0l-6-6a1 1 0 010-1.414l6-6a1 1 0 111.414 1.414L3.414 6H15a1 1 0 110 2H3.414l4.293 4.293a1 1 0 010 1.414z"/>
</symbol><symbol viewBox="0 0 16 14" id="arrow-right" xmlns="http://www.w3.org/2000/svg">
    <path fill-rule="evenodd" clip-rule="evenodd" d="M8.293.293a1 1 0 011.414 0l6 6a1 1 0 010 1.414l-6 6a1 1 0 01-1.414-1.414L12.586 8H1a1 1 0 010-2h11.586L8.293 1.707a1 1 0 010-1.414z"/>
</symbol><symbol class="adh-6 adw-6" viewBox="0 0 24 24" id="bell" xmlns="http://www.w3.org/2000/svg">
    <path stroke-linecap="round" stroke-linejoin="round" stroke-width="2" d="M15 17h5l-1.405-1.405A2.032 2.032 0 0118 14.158V11a6.002 6.002 0 00-4-5.659V5a2 2 0 10-4 0v.341C7.67 6.165 6 8.388 6 11v3.159c0 .538-.214 1.055-.595 1.436L4 17h5m6 0v1a3 3 0 11-6 0v-1m6 0H9"/>
</symbol><symbol class="aeh-6 aew-6" viewBox="0 0 24 24" id="cart-bar" xmlns="http://www.w3.org/2000/svg">
    <path stroke-linecap="round" stroke-linejoin="round" stroke-width="2" d="M8 13v-1m4 1v-3m4 3V8M8 21l4-4 4 4M3 4h18M4 4h16v12a1 1 0 01-1 1H5a1 1 0 01-1-1V4z"/>
</symbol><symbol viewBox="0 0 20 18" id="certificate" xmlns="http://www.w3.org/2000/svg">
    <path d="M6 6l3 3-3 3m5 0h3M3 17h14a2 2 0 002-2V3a2 2 0 00-2-2H3a2 2 0 00-2 2v12a2 2 0 002 2z" stroke-width="2" stroke-linecap="round" stroke-linejoin="round"/>
</symbol><symbol viewBox="0 0 12 9" id="check" xmlns="http://www.w3.org/2000/svg">
    <path d="M1 5.2L3.857 8 11 1" stroke-width="2" stroke-linecap="round" stroke-linejoin="round"/>
</symbol><symbol viewBox="0 0 18 18" id="circle-check" xmlns="http://www.w3.org/2000/svg">
    <path fill-rule="evenodd" clip-rule="evenodd" d="M9 17.8A8.8 8.8 0 109 .2a8.8 8.8 0 000 17.6zm4.077-10.222a1.1 1.1 0 10-1.556-1.556L7.9 9.645 6.477 8.222a1.1 1.1 0 00-1.556 1.556l2.2 2.2a1.1 1.1 0 001.556 0l4.4-4.4z"/>
</symbol><symbol viewBox="0 0 20 20" id="circle-check-alt" xmlns="http://www.w3.org/2000/svg">
    <path d="M7 10l2 2 4-4m6 2a9 9 0 11-18 0 9 9 0 0118 0z" stroke-width="2" stroke-linecap="round" stroke-linejoin="round"/>
</symbol><symbol viewBox="0 0 14 14" id="circle-minus" xmlns="http://www.w3.org/2000/svg">
    <path d="M8.75 7h-3.5m7 0a5.25 5.25 0 11-10.5 0 5.25 5.25 0 0110.5 0z" stroke-width="2" stroke-linecap="round" stroke-linejoin="round"/>
</symbol><symbol viewBox="0 0 30 30" id="circle-plus-big" xmlns="http://www.w3.org/2000/svg">
    <path d="M15 10.5V15m0 0v4.5m0-4.5h4.5M15 15h-4.5m18 0c0 7.456-6.044 13.5-13.5 13.5S1.5 22.456 1.5 15 7.544 1.5 15 1.5 28.5 7.544 28.5 15z" stroke-width="2" stroke-linecap="round" stroke-linejoin="round"/>
</symbol><symbol viewBox="0 0 18 18" id="clock" xmlns="http://www.w3.org/2000/svg">
    <path d="M9 7.333V10l2 2m4-2a6 6 0 11-12 0 6 6 0 0112 0z" stroke-width="2" stroke-linecap="round" stroke-linejoin="round"/>
    <path d="M6 1a1 1 0 011-1h4a1 1 0 110 2H7a1 1 0 01-1-1z"/>
</symbol><symbol viewBox="0 0 20 16" id="credit-card" xmlns="http://www.w3.org/2000/svg">
    <path d="M1 6h18M5 11h1m4 0h1m-7 4h12a3 3 0 003-3V4a3 3 0 00-3-3H4a3 3 0 00-3 3v8a3 3 0 003 3z" stroke-width="2" stroke-linecap="round" stroke-linejoin="round"/>
</symbol><symbol class="anh-6 anw-6" viewBox="0 0 24 24" id="document-text" xmlns="http://www.w3.org/2000/svg">
    <path stroke-linecap="round" stroke-linejoin="round" stroke-width="2" d="M9 12h6m-6 4h6m2 5H7a2 2 0 01-2-2V5a2 2 0 012-2h5.586a1 1 0 01.707.293l5.414 5.414a1 1 0 01.293.707V19a2 2 0 01-2 2z"/>
</symbol><symbol viewBox="0 0 10 17" id="facebook" xmlns="http://www.w3.org/2000/svg">
    <path d="M7.111 4.106c0-.025.139-.108.581-.108h1.446a.897.897 0 00.33-.058c.105-.04.2-.1.28-.174a.799.799 0 00.187-.262.758.758 0 00.065-.31V.82a.761.761 0 00-.06-.31.8.8 0 00-.18-.263.857.857 0 00-.276-.179.9.9 0 00-.326-.066H7.004a4.66 4.66 0 00-1.751.28 4.45 4.45 0 00-1.492.907c-.413.42-.734.912-.944 1.449a4.11 4.11 0 00-.282 1.678V6.47H.862a.905.905 0 00-.329.06c-.104.04-.2.1-.28.174a.806.806 0 00-.186.261.766.766 0 00-.067.309V9.83c0 .212.09.416.249.566.16.15.376.234.601.234h1.646v5.555a.779.779 0 00.24.57.88.88 0 00.599.244H6.16c.112 0 .223-.02.327-.061.103-.04.197-.1.276-.174a.8.8 0 00.184-.261.759.759 0 00.063-.307v-5.548h2.012a.886.886 0 00.603-.236c.16-.15.25-.355.25-.567V7.283a.76.76 0 00-.064-.306.799.799 0 00-.186-.26.856.856 0 00-.277-.173.897.897 0 00-.326-.06h-2V4.598a.837.837 0 01.088-.492z"/>
</symbol><symbol viewBox="0 0 20 20" id="github" xmlns="http://www.w3.org/2000/svg">
    <path fill-rule="evenodd" clip-rule="evenodd" d="M10 0C4.477 0 0 4.484 0 10.017c0 4.425 2.865 8.18 6.839 9.504.5.092.682-.217.682-.483 0-.237-.008-.868-.013-1.703-2.782.605-3.369-1.343-3.369-1.343-.454-1.158-1.11-1.466-1.11-1.466-.908-.62.069-.608.069-.608 1.003.07 1.531 1.032 1.531 1.032.892 1.53 2.341 1.088 2.91.832.092-.647.35-1.088.636-1.338-2.22-.253-4.555-1.113-4.555-4.951 0-1.093.39-1.988 1.029-2.688-.103-.253-.446-1.272.098-2.65 0 0 .84-.27 2.75 1.026A9.564 9.564 0 0110 4.844a9.59 9.59 0 012.504.337c1.909-1.296 2.747-1.027 2.747-1.027.546 1.379.203 2.398.1 2.651.64.7 1.028 1.595 1.028 2.688 0 3.848-2.339 4.695-4.566 4.942.359.31.678.921.678 1.856 0 1.338-.012 2.419-.012 2.747 0 .268.18.58.688.482A10.02 10.02 0 0020 10.017C20 4.484 15.522 0 10 0z"/>
</symbol><symbol class="aqh-6 aqw-6" viewBox="0 0 24 24" id="home" xmlns="http://www.w3.org/2000/svg">
    <path stroke-linecap="round" stroke-linejoin="round" stroke-width="2" d="M3 12l2-2m0 0l7-7 7 7M5 10v10a1 1 0 001 1h3m10-11l2 2m-2-2v10a1 1 0 01-1 1h-3m-6 0a1 1 0 001-1v-4a1 1 0 011-1h2a1 1 0 011 1v4a1 1 0 001 1m-6 0h6"/>
</symbol><symbol viewBox="0 0 16 16" id="info" xmlns="http://www.w3.org/2000/svg">
    <path fill-rule="evenodd" clip-rule="evenodd" d="M16 8A8 8 0 110 8a8 8 0 0116 0zm-7 4a1 1 0 11-2 0 1 1 0 012 0zM8 3a1 1 0 00-1 1v4a1 1 0 002 0V4a1 1 0 00-1-1z"/>
</symbol><symbol viewBox="0 0 14 14" id="info2" xmlns="http://www.w3.org/2000/svg">
    <path fill-rule="evenodd" clip-rule="evenodd" d="M13.4 7A6.4 6.4 0 11.6 7a6.4 6.4 0 0112.8 0zM7 4.6a.8.8 0 00-.694.4.8.8 0 01-1.385-.8A2.4 2.4 0 117.8 7.664V7.8a.8.8 0 01-1.6 0V7a.8.8 0 01.8-.8.8.8 0 100-1.6zM7 11a.8.8 0 100-1.6.8.8 0 000 1.6z"/>
</symbol><symbol viewBox="0 0 17 17" id="link" xmlns="http://www.w3.org/2000/svg">
    <path d="M9.65.45a1.15 1.15 0 100 2.3h2.973L5.386 9.987a1.15 1.15 0 001.626 1.626l7.237-7.237V7.35a1.15 1.15 0 002.3 0V1.6A1.15 1.15 0 0015.4.45H9.65z"/>
    <path d="M2.75 2.75a2.3 2.3 0 00-2.3 2.3v9.2a2.3 2.3 0 002.3 2.3h9.2a2.3 2.3 0 002.3-2.3V10.8a1.15 1.15 0 00-2.3 0v3.45h-9.2v-9.2H6.2a1.15 1.15 0 000-2.3H2.75z"/>
</symbol><symbol viewBox="0 0 24 24" id="mail-open" xmlns="http://www.w3.org/2000/svg">
    <path d="M3 19v-8.93M3 19a2 2 0 002 2h14a2 2 0 002-2M3 19l6.75-4.5M21 19v-8.93M21 19l-6.75-4.5M3 10l6.75 4.5M21 10l-6.75 4.5m0 0l-1.14.76a2 2 0 01-2.22 0l-1.14-.76M6 8.493a1.293 1.293 0 00.8-1.929c-.706-1.157.619-2.482 1.776-1.777a1.293 1.293 0 001.93-.799c.32-1.317 2.193-1.317 2.512 0a1.293 1.293 0 001.93.8c1.157-.706 2.482.619 1.777 1.776a1.293 1.293 0 00.799 1.93M14.012 9.75a2.25 2.25 0 11-4.5 0 2.25 2.25 0 014.5 0z" stroke-width="2" stroke-linecap="round" stroke-linejoin="round"/>
</symbol><symbol class="avh-6 avw-6" viewBox="0 0 24 24" id="microphone" xmlns="http://www.w3.org/2000/svg">
    <path stroke-linecap="round" stroke-linejoin="round" stroke-width="2" d="M19 11a7 7 0 01-7 7m0 0a7 7 0 01-7-7m7 7v4m0 0H8m4 0h4m-4-8a3 3 0 01-3-3V5a3 3 0 116 0v6a3 3 0 01-3 3z"/>
</symbol><symbol viewBox="0 0 20 18" id="multipass" xmlns="http://www.w3.org/2000/svg">
    <path d="M8 4H3a2 2 0 00-2 2v9a2 2 0 002 2h14a2 2 0 002-2V6a2 2 0 00-2-2h-5M8 4V3a2 2 0 114 0v1M8 4a2 2 0 104 0m-5 8a2 2 0 100-4 2 2 0 000 4zm0 0c1.306 0 2.417.835 2.83 2M7 12a3.001 3.001 0 00-2.83 2M13 9h3m-3 4h2" stroke-width="2" stroke-linecap="round" stroke-linejoin="round"/>
</symbol><symbol viewBox="0 0 16 15" id="multipass2" xmlns="http://www.w3.org/2000/svg">
    <path d="M8 0a1 1 0 00-1 1v1a1 1 0 002 0V1a1 1 0 00-1-1z"/>
    <path clip-rule="evenodd" d="M2 2h3a3 3 0 006 0h3a2 2 0 012 2v9a2 2 0 01-2 2H2a2 2 0 01-2-2V4a2 2 0 012-2zm2.5 7a1.5 1.5 0 100-3 1.5 1.5 0 000 3zm2.45 4a2.5 2.5 0 10-4.9 0h4.9zM10 7a1 1 0 000 2h3a1 1 0 100-2h-3zm-1 4a1 1 0 011-1h2a1 1 0 110 2h-2a1 1 0 01-1-1z"/>
</symbol><symbol viewBox="0 0 18 20" id="out" xmlns="http://www.w3.org/2000/svg">
    <path d="M5 3H3a2 2 0 00-2 2v12a2 2 0 002 2h10a2 2 0 002-2v-1M5 3a2 2 0 002 2h2a2 2 0 002-2M5 3a2 2 0 012-2h2a2 2 0 012 2m0 0h2a2 2 0 012 2v3m2 4H7m0 0l3-3m-3 3l3 3" stroke-width="2" stroke-linecap="round" stroke-linejoin="round"/>
</symbol><symbol viewBox="0 0 22 18" id="people" xmlns="http://www.w3.org/2000/svg">
    <g clip-path="url(#azclip0)">
        <path fill-rule="evenodd" clip-rule="evenodd" d="M11.662 11.983a.936.936 0 01.446-.415.957.957 0 011.128.267.918.918 0 01.205.569c0 1.076-1.345 1.96-2.389 1.96-1.043 0-2.39-.884-2.39-1.96a.931.931 0 01.232-.582.97.97 0 011.178-.214.945.945 0 01.427.462c.27.723.968.513 1.17-.087h-.007zm4.565 2.226c.81.21 2.087-.21 2.282-1.094a.725.725 0 00-.061-.495.743.743 0 00-.367-.342.76.76 0 00-.917.255.627.627 0 01-.321.267c.214-.668.415-1.448.572-2.115a1.594 1.594 0 001.997-.44 1.532 1.532 0 00.24-1.387 1.541 1.541 0 00-.377-.62 1.597 1.597 0 00-1.357-.446c.057-.496.107-1.009.145-1.504.698.266 1.402.495 2.1.724 0 2.275-.434 8.31-3.597 8.292-.3 0-.599-.055-.88-.161.195-.334.377-.618.54-.934zm-10.482 0c-.81.229-2.068-.21-2.282-1.094a.725.725 0 01.061-.495.743.743 0 01.368-.342.76.76 0 01.917.255.547.547 0 00.358.267 18.12 18.12 0 01-.754-2.721h-1.32a.77.77 0 01-.541-.22.745.745 0 010-1.063.77.77 0 01.54-.22h1.063c-.126-.76-.195-1.515-.27-2.294a38.82 38.82 0 01-2.07.724c0 2.275.435 8.31 3.597 8.291.295.002.588-.053.862-.16a8.667 8.667 0 01-.447-.78c-.037-.055-.056-.104-.088-.16l.006.012zm8.325-5.645h-1.836a.951.951 0 01-.667-.272.92.92 0 010-1.311.951.951 0 01.667-.272h1.723c.25-.014.496.07.683.234a.92.92 0 01.075 1.312.951.951 0 01-.651.309h.006zM3.79 4.365V2.813A38.595 38.595 0 0010.977.006a38.739 38.739 0 007.205 2.807v1.534c1.258.513 2.515.933 3.83 1.342v.389c0 3.444-.667 11.05-5.427 11.05a3.75 3.75 0 01-2.03-.563 5.073 5.073 0 01-3.55 1.442 5.073 5.073 0 01-3.55-1.442 3.821 3.821 0 01-2.011.544C.678 17.11.018 9.504.018 6.06V5.67c1.257-.408 2.571-.81 3.772-1.323v.018zm14.524 4.947a.15.15 0 00-.045-.107.155.155 0 00-.218 0 .15.15 0 000 .214.155.155 0 00.218 0 .15.15 0 00.045-.107zM8.84 5.602c.403-.001.797.115 1.133.334.335.22.598.531.753.897a1.972 1.972 0 01-.435 2.185 2.07 2.07 0 01-2.219.441 2.03 2.03 0 01-.916-.735 1.98 1.98 0 01.245-2.53 2.04 2.04 0 011.439-.592zm-.27 2.01c0 .072.03.143.082.194a.282.282 0 00.395 0 .273.273 0 000-.39.282.282 0 00-.395 0 .273.273 0 00-.082.196zm-2.484-3.16c0 3.092.56 11.26 4.892 11.26 4.332 0 4.891-8.156 4.891-11.26a30.427 30.427 0 01-4.891-1.905 30.423 30.423 0 01-4.892 1.905z"/>
    </g>
    <defs>
        <clipPath id="azclip0">
            <path d="M0 0h22v18H0z"/>
        </clipPath>
    </defs>
</symbol><symbol viewBox="0 0 16 14" id="photo" xmlns="http://www.w3.org/2000/svg">
    <path fill-rule="evenodd" clip-rule="evenodd" d="M2 2a2 2 0 00-2 2v8a2 2 0 002 2h12a2 2 0 002-2V4a2 2 0 00-2-2h-1.586a1 1 0 01-.707-.293L10.586.586A2 2 0 009.172 0H6.828a2 2 0 00-1.414.586L4.293 1.707A1 1 0 013.586 2H2zm6 9a3 3 0 100-6 3 3 0 000 6z"/>
</symbol><symbol viewBox="0 0 14 17" id="pin" xmlns="http://www.w3.org/2000/svg">
    <path fill-rule="evenodd" clip-rule="evenodd" d="M2.05 2.05a7 7 0 119.9 9.9L7 16.9l-4.95-4.95a7 7 0 010-9.9zM7 9a2 2 0 100-4 2 2 0 000 4z"/>
</symbol><symbol class="bch-6 bcw-6" viewBox="0 0 24 24" id="play" xmlns="http://www.w3.org/2000/svg">
    <path stroke-linecap="round" stroke-linejoin="round" stroke-width="2" d="M14.752 11.168l-3.197-2.132A1 1 0 0010 9.87v4.263a1 1 0 001.555.832l3.197-2.132a1 1 0 000-1.664z"/>
    <path stroke-linecap="round" stroke-linejoin="round" stroke-width="2" d="M21 12a9 9 0 11-18 0 9 9 0 0118 0z"/>
</symbol><symbol viewBox="0 0 357 357" id="play-arrow" xmlns="http://www.w3.org/2000/svg">
    <path d="M38.25 0v357l280.5-178.5z"/>
</symbol><symbol viewBox="0 0 14 14" id="plus" xmlns="http://www.w3.org/2000/svg">
    <path clip-rule="evenodd" d="M8.165 1.167a1.167 1.167 0 10-2.333 0v4.666H1.167a1.167 1.167 0 100 2.334h4.665v4.666a1.167 1.167 0 102.333 0V8.167h4.668a1.167 1.167 0 100-2.334H8.165V1.167z"/>
</symbol><symbol viewBox="0 0 20 20" id="profile" xmlns="http://www.w3.org/2000/svg">
    <path d="M3.121 15.804A13.937 13.937 0 0110 14c2.5 0 4.847.655 6.879 1.804M13 8a3 3 0 11-6 0 3 3 0 016 0zm6 2a9 9 0 11-18 0 9 9 0 0118 0z" stroke-width="2" stroke-linecap="round" stroke-linejoin="round"/>
</symbol><symbol class="bgh-6 bgw-6" viewBox="0 0 24 24" id="star" xmlns="http://www.w3.org/2000/svg">
    <path stroke-linecap="round" stroke-linejoin="round" stroke-width="2" d="M11.049 2.927c.3-.921 1.603-.921 1.902 0l1.519 4.674a1 1 0 00.95.69h4.915c.969 0 1.371 1.24.588 1.81l-3.976 2.888a1 1 0 00-.363 1.118l1.518 4.674c.3.922-.755 1.688-1.538 1.118l-3.976-2.888a1 1 0 00-1.176 0l-3.976 2.888c-.783.57-1.838-.197-1.538-1.118l1.518-4.674a1 1 0 00-.363-1.118l-3.976-2.888c-.784-.57-.38-1.81.588-1.81h4.914a1 1 0 00.951-.69l1.519-4.674z"/>
</symbol><symbol viewBox="0 0 32 36" id="subtract" xmlns="http://www.w3.org/2000/svg">
    <path fill-rule="evenodd" clip-rule="evenodd" d="M4.571 11.25v4.5C2.047 15.75 0 17.765 0 20.25V31.5C0 33.985 2.047 36 4.571 36H27.43C29.953 36 32 33.985 32 31.5V20.25c0-2.485-2.047-4.5-4.571-4.5v-4.5C27.429 5.037 22.312 0 16 0S4.571 5.037 4.571 11.25zm18.286 4.5v-4.5c0-3.728-3.07-6.75-6.857-6.75-3.787 0-6.857 3.022-6.857 6.75v4.5h13.714zM19 24c0 .889-.386 1.687-1 2.236V29a2 2 0 11-4 0v-2.764A3 3 0 1119 24z"/>
</symbol><symbol viewBox="0 0 20 18" id="twitter" xmlns="http://www.w3.org/2000/svg">
    <path d="M6.29 17.251c7.547 0 11.675-6.253 11.675-11.675 0-.178 0-.355-.012-.53A8.349 8.349 0 0020 2.92a8.19 8.19 0 01-2.357.646 4.118 4.118 0 001.804-2.27 8.224 8.224 0 01-2.605.996 4.107 4.107 0 00-6.993 3.743 11.65 11.65 0 01-8.457-4.287 4.106 4.106 0 001.27 5.477A4.073 4.073 0 01.8 6.713v.052a4.105 4.105 0 003.292 4.022 4.096 4.096 0 01-1.853.07 4.108 4.108 0 003.834 2.85A8.232 8.232 0 010 15.407a11.616 11.616 0 006.29 1.84"/>
</symbol><symbol viewBox="0 0 16 21" id="user" xmlns="http://www.w3.org/2000/svg">
    <path d="M12 5.772c0 2.186-1.79 3.958-4 3.958S4 7.958 4 5.772s1.79-3.958 4-3.958 4 1.772 4 3.958zM8 12.698c-3.866 0-7 3.1-7 6.926h14c0-3.825-3.134-6.926-7-6.926z" stroke-width="2" stroke-linecap="round" stroke-linejoin="round"/>
</symbol><symbol viewBox="0 0 22 18" id="users" xmlns="http://www.w3.org/2000/svg">
    <path d="M16 17h5v-2a3 3 0 00-5.356-1.857M16 17H6m10 0v-2c0-.656-.126-1.283-.356-1.857M6 17H1v-2a3 3 0 015.356-1.857M6 17v-2c0-.656.126-1.283.356-1.857m0 0a5.002 5.002 0 019.288 0M14 4a3 3 0 11-6 0 3 3 0 016 0zm6 3a2 2 0 11-4 0 2 2 0 014 0zM6 7a2 2 0 11-4 0 2 2 0 014 0z" stroke-width="2" stroke-linecap="round" stroke-linejoin="round"/>
</symbol><symbol class="blh-6 blw-6" viewBox="0 0 24 24" id="zoom" xmlns="http://www.w3.org/2000/svg">
    <path stroke-linecap="round" stroke-linejoin="round" stroke-width="2" d="M21 21l-6-6m2-5a7 7 0 11-14 0 7 7 0 0114 0z"/>
</symbol></svg>