<svg class="icon icon-close-circle" xmlns="http://www.w3.org/2000/svg" version="1.1" width="20" height="20" x="0" y="0" viewBox="0 0 32 32" style="enable-background:new 0 0 20 20" xml:space="preserve">

	<path d="m16 30a14 14 0 1 1 14-14 14 14 0 0 1 -14 14zm0-26a12 12 0 1 0 12 12 12 12 0 0 0 -12-12z"></path>
	<path d="m21 22a1 1 0 0 1 -.71-.29l-5-5a1 1 0 0 1 1.42-1.42l5 5a1 1 0 0 1 0 1.42 1 1 0 0 1 -.71.29z"></path>
	<path d="m11 22a1 1 0 0 1 -.71-.29 1 1 0 0 1 0-1.42l5-5a1 1 0 0 1 1.42 1.42l-5 5a1 1 0 0 1 -.71.29z"></path>
	<path d="m16 17a1 1 0 0 1 -.71-.29 1 1 0 0 1 0-1.42l5-5a1 1 0 0 1 1.42 1.42l-5 5a1 1 0 0 1 -.71.29z"></path>
	<path d="m16 17a1 1 0 0 1 -.71-.29l-5-5a1 1 0 0 1 1.42-1.42l5 5a1 1 0 0 1 0 1.42 1 1 0 0 1 -.71.29z"></path>

</svg>