<svg width="18" height="18" viewBox="0 0 18 18" fill="none" xmlns="http://www.w3.org/2000/svg">
<path fill-rule="evenodd" clip-rule="evenodd" d="M8.99922 17.8002C13.8593 17.8002 17.7992 13.8603 17.7992 9.0002C17.7992 4.14009 13.8593 0.200195 8.99922 0.200195C4.13911 0.200195 0.199219 4.14009 0.199219 9.0002C0.199219 13.8603 4.13911 17.8002 8.99922 17.8002ZM13.077 7.57801C13.5066 7.14844 13.5066 6.45195 13.077 6.02238C12.6475 5.5928 11.951 5.5928 11.5214 6.02238L7.89922 9.64456L6.47704 8.22238C6.04746 7.7928 5.35098 7.7928 4.9214 8.22238C4.49182 8.65195 4.49182 9.34844 4.9214 9.77801L7.1214 11.978C7.55098 12.4076 8.24746 12.4076 8.67704 11.978L13.077 7.57801Z" fill="#FF6600"/>
</svg>
