<svg width="10" height="17" viewBox="0 0 10 17" fill="none" xmlns="http://www.w3.org/2000/svg">
<path d="M7.11144 4.10617C7.11144 4.08084 7.2499 3.9976 7.6922 3.9976H9.13833C9.25125 3.99905 9.36333 3.97931 9.46805 3.93954C9.57276 3.89976 9.66801 3.84076 9.74821 3.76597C9.82842 3.69117 9.89198 3.60209 9.93519 3.50393C9.9784 3.40576 10.0004 3.30048 9.99986 3.19423V0.820287C10.0019 0.714482 9.9817 0.609341 9.94042 0.510903C9.89914 0.412464 9.83761 0.322668 9.75934 0.246673C9.68107 0.170677 9.58762 0.10998 9.48435 0.0680659C9.38108 0.0261522 9.27002 0.00384874 9.15756 0.00243605H7.00375C6.40602 -0.0168399 5.81038 0.0784421 5.25301 0.282492C4.69564 0.486542 4.18818 0.795097 3.76149 1.18941C3.34822 1.60887 3.02709 2.10101 2.81654 2.63757C2.60599 3.17414 2.51017 3.74455 2.53458 4.31606V6.46925H0.861526C0.748894 6.46878 0.637264 6.48918 0.533012 6.5293C0.42876 6.56941 0.333927 6.62846 0.253926 6.70306C0.173926 6.77766 0.110325 6.86635 0.0667563 6.96408C0.0231876 7.06181 0.000503946 7.16665 0 7.27263V9.83113C0 10.0432 0.0895517 10.2467 0.248955 10.3966C0.408359 10.5466 0.624557 10.6309 0.849988 10.6309H2.49612V16.1858C2.49303 16.3982 2.57952 16.6032 2.73666 16.7558C2.8938 16.9084 3.10878 16.9962 3.33457 17H6.16145C6.2734 17 6.38424 16.9792 6.48762 16.9388C6.591 16.8984 6.68487 16.8391 6.76385 16.7645C6.84283 16.6898 6.90536 16.6012 6.94785 16.5038C6.99033 16.4063 7.01195 16.302 7.01144 16.1966V10.649H9.02295C9.24909 10.648 9.46568 10.5631 9.62558 10.4126C9.78549 10.2622 9.87577 10.0584 9.87679 9.84561V7.28349C9.87679 7.17816 9.85467 7.07386 9.81172 6.97659C9.76876 6.87933 9.70581 6.791 9.62647 6.71669C9.54713 6.64238 9.45298 6.58354 9.34941 6.54356C9.24584 6.50359 9.1349 6.48325 9.02295 6.48373H7.02298V4.59833C7.00154 4.42968 7.03226 4.2588 7.11144 4.10617Z" fill="#FF6600"/>
</svg>
