<svg width="14" height="14" viewBox="0 0 14 14" fill="none" xmlns="http://www.w3.org/2000/svg">
<path fill-rule="evenodd" clip-rule="evenodd" d="M13.3996 7.0001C13.3996 10.5347 10.5342 13.4001 6.99961 13.4001C3.46499 13.4001 0.599609 10.5347 0.599609 7.0001C0.599609 3.46548 3.46499 0.600098 6.99961 0.600098C10.5342 0.600098 13.3996 3.46548 13.3996 7.0001ZM6.99962 4.6001C6.70451 4.6001 6.44569 4.75947 6.30616 5.00068C6.08492 5.38313 5.59554 5.51382 5.21309 5.29258C4.83064 5.07135 4.69995 4.58197 4.92119 4.19952C5.33495 3.48424 6.11027 3.0001 6.99962 3.0001C8.3251 3.0001 9.39962 4.07461 9.39962 5.4001C9.39962 6.44507 8.73178 7.33406 7.79962 7.66353V7.8001C7.79962 8.24192 7.44145 8.6001 6.99962 8.6001C6.55779 8.6001 6.19962 8.24192 6.19962 7.8001V7.0001C6.19962 6.55827 6.55779 6.2001 6.99962 6.2001C7.44145 6.2001 7.79962 5.84193 7.79962 5.4001C7.79962 4.95827 7.44145 4.6001 6.99962 4.6001ZM6.99961 11.0001C7.44144 11.0001 7.79961 10.6419 7.79961 10.2001C7.79961 9.75827 7.44144 9.4001 6.99961 9.4001C6.55778 9.4001 6.19961 9.75827 6.19961 10.2001C6.19961 10.6419 6.55778 11.0001 6.99961 11.0001Z" fill="#B0B0B0"/>
</svg>
