<svg width="20" height="8" viewBox="0 0 20 8" fill="none" xmlns="http://www.w3.org/2000/svg">
<path d="M15.6568 2.00022C16.7614 2.00022 17.6568 2.89565 17.6568 4.00022C17.6568 5.10479 16.7614 6.00022 15.6568 6.00022L11.4142 6.00022C10.3096 6.00022 9.4142 5.10479 9.4142 4.00022C9.4142 3.44793 8.96649 3.00022 8.4142 3.00022C7.86192 3.00022 7.4142 3.44794 7.4142 4.00022C7.4142 6.20936 9.20506 8.00022 11.4142 8.00022L15.6568 8.00022C17.866 8.00022 19.6568 6.20936 19.6568 4.00022C19.6568 1.79108 17.866 0.000219826 15.6568 0.000219573H13.5355C12.9832 0.000219404 12.5355 0.447935 12.5355 1.00022C12.5355 1.5525 12.9832 2.00022 13.5355 2.00022L15.6568 2.00022Z" fill="white"/>
<path d="M8.58579 2.00023C9.69036 2.00023 10.5858 2.89566 10.5858 4.00023C10.5858 4.55252 11.0335 5.00023 11.5858 5.00023C12.1381 5.00023 12.5858 4.55252 12.5858 4.00023C12.5858 1.79109 10.7949 0.000231543 8.58579 0.000231205L4.34315 0.000232301C2.13401 0.000232638 0.343145 1.79109 0.343146 4.00023C0.343145 6.20937 2.13401 8.00023 4.34315 8.00023L6.46447 8.00023C7.01675 8.00023 7.46447 7.55252 7.46447 7.00023C7.46447 6.44795 7.01675 6.00023 6.46447 6.00023H4.34315C3.23858 6.00023 2.34315 5.1048 2.34315 4.00023C2.34315 2.89566 3.23858 2.00023 4.34315 2.00023L8.58579 2.00023Z" fill="white"/>
</svg>
