<svg width="32" height="36" viewBox="0 0 32 36" fill="none" xmlns="http://www.w3.org/2000/svg">
<path fill-rule="evenodd" clip-rule="evenodd" d="M4.57143 11.25V15.75C2.0467 15.75 0 17.7647 0 20.25V31.5C0 33.9853 2.0467 36 4.57143 36H27.4286C29.9533 36 32 33.9853 32 31.5V20.25C32 17.7647 29.9533 15.75 27.4286 15.75V11.25C27.4286 5.0368 22.3118 0 16 0C9.68817 0 4.57143 5.0368 4.57143 11.25ZM22.8571 15.75V11.25C22.8571 7.52208 19.7871 4.5 16 4.5C12.2129 4.5 9.14286 7.52208 9.14286 11.25V15.75H22.8571ZM19 24C19 24.8885 18.6138 25.6868 18 26.2361V29C18 30.1046 17.1046 31 16 31C14.8954 31 14 30.1046 14 29V26.2361C13.3863 25.6868 13 24.8885 13 24C13 22.3431 14.3431 21 16 21C17.6569 21 19 22.3431 19 24Z" fill="white"/>
</svg>
