<svg width="192" height="48" viewBox="0 0 192 48" fill="none" xmlns="http://www.w3.org/2000/svg">
<path d="M44.2064 24.2652C44.2064 30.8654 38.8561 36.2159 32.2557 36.2159C29.1901 36.2159 26.3942 35.0613 24.2786 33.1638C27.6676 31.638 30.0269 28.2315 30.0269 24.2739C30.0269 20.3111 27.6617 16.9011 24.2656 15.3782C26.383 13.4738 29.1838 12.3147 32.2557 12.3147C38.8561 12.3147 44.2064 17.6651 44.2064 24.2652Z" fill="black"/>
<path d="M27.4783 14.7262C20.1388 9.17966 9.54717 13.6579 8.41353 22.7874C7.88673 27.0304 9.66657 31.2315 13.0809 33.8045C20.4244 39.3461 31.013 34.86 32.1404 25.7297C32.6635 21.4921 30.8863 17.2978 27.4783 14.7261V14.7262ZM26.149 16.4872C32.1369 21.0055 30.9878 30.3112 24.0807 33.2375C20.8755 34.5957 17.1889 34.1405 14.41 32.0434C8.42253 27.5249 9.57141 18.2193 16.4784 15.2931C19.6837 13.9351 23.3703 14.3902 26.149 16.4872Z" fill="black"/>
<path d="M57.9567 15.495C59.5968 15.495 60.9947 15.9194 62.1506 16.7688C63.3065 17.6183 64.1012 18.7441 64.5351 20.1463V15.7006H66.5814V31.8835H64.5351V27.438C64.1012 28.8415 63.3065 29.9678 62.1506 30.8172C60.9947 31.6667 59.5968 32.0914 57.9567 32.0914C56.4947 32.0914 55.1856 31.7554 54.0296 31.0837C52.8738 30.4122 51.9749 29.4488 51.3326 28.1936C50.6905 26.9386 50.3691 25.4713 50.3691 23.792C50.3691 22.0933 50.6905 20.6165 51.3326 19.3613C51.9749 18.1074 52.8689 17.1497 54.015 16.4875C55.161 15.8256 56.4749 15.495 57.9567 15.495ZM58.49 17.3315C56.6723 17.3315 55.215 17.9093 54.1178 19.0654C53.0221 20.2213 52.4742 21.7969 52.4742 23.792C52.4742 25.7875 53.0221 27.3632 54.1178 28.5192C55.215 29.6749 56.6723 30.2527 58.49 30.2527C59.6359 30.2527 60.6683 29.9863 61.5863 29.4529C62.5053 28.92 63.2267 28.1641 63.7502 27.186C64.2735 26.2079 64.5351 25.0768 64.5351 23.792C64.5351 22.5076 64.2735 21.377 63.7502 20.3999C63.2267 19.4221 62.5053 18.6655 61.5863 18.1315C60.6683 17.5981 59.6359 17.3315 58.49 17.3315ZM79.7395 15.495C81.2214 15.495 82.5305 15.8256 83.6665 16.4875C84.8028 17.1497 85.6921 18.1074 86.3343 19.3613C86.9765 20.6165 87.2976 22.0933 87.2976 23.792C87.2976 25.4713 86.9765 26.9386 86.3343 28.1936C85.6921 29.4488 84.7975 30.4122 83.652 31.0837C82.506 31.7554 81.2017 32.0914 79.7395 32.0914C78.0797 32.0914 76.677 31.6667 75.531 30.8172C74.385 29.9678 73.5949 28.8415 73.1609 27.438V39.5301H71.0852V15.7006H73.1609V20.1463C73.5949 18.7441 74.385 17.6183 75.531 16.7688C76.677 15.9194 78.0797 15.495 79.7395 15.495ZM79.1767 17.3315C78.0307 17.3315 76.9981 17.5981 76.0788 18.1315C75.1608 18.6655 74.4449 19.4221 73.9314 20.3999C73.4179 21.377 73.1609 22.5076 73.1609 23.792C73.1609 25.0768 73.4179 26.2079 73.9314 27.186C74.4449 28.1641 75.1608 28.92 76.0788 29.4529C76.9981 29.9863 78.0307 30.2527 79.1767 30.2527C81.014 30.2527 82.4763 29.6749 83.5635 28.5192C84.6497 27.3632 85.1925 25.7875 85.1925 23.792C85.1925 21.7969 84.6497 20.2213 83.5635 19.0654C82.4763 17.9093 81.014 17.3315 79.1767 17.3315ZM99.6849 15.495C101.167 15.495 102.476 15.8256 103.612 16.4875C104.748 17.1497 105.638 18.1074 106.28 19.3613C106.922 20.6165 107.243 22.0933 107.243 23.792C107.243 25.4713 106.922 26.9386 106.28 28.1936C105.638 29.4488 104.744 30.4122 103.598 31.0837C102.452 31.7554 101.147 32.0914 99.6849 32.0914C98.0253 32.0914 96.6228 31.6667 95.4769 30.8172C94.3307 29.9678 93.5408 28.8415 93.1069 27.438V39.5301H91.0311V15.7006H93.1069V20.1463C93.5408 18.7441 94.3307 17.6183 95.4769 16.7688C96.6228 15.9194 98.0253 15.495 99.6849 15.495ZM99.1226 17.3315C97.9767 17.3315 96.9438 17.5981 96.0246 18.1315C95.1067 18.6655 94.3909 19.4221 93.8772 20.3999C93.3637 21.377 93.1069 22.5076 93.1069 23.792C93.1069 25.0768 93.3637 26.2079 93.8772 27.186C94.3909 28.1641 95.1067 28.92 96.0246 29.4529C96.9438 29.9863 97.9767 30.2527 99.1226 30.2527C100.96 30.2527 102.422 29.6749 103.509 28.5192C104.595 27.3632 105.138 25.7875 105.138 23.792C105.138 21.7969 104.595 20.2213 103.509 19.0654C102.422 17.9093 100.96 17.3315 99.1226 17.3315ZM130.212 15.4655H134.124L129.708 31.8835H125.084L121.558 19.9404L117.941 31.8835H113.319L108.932 15.4655H113.112L115.779 28.1496L119.423 15.4655H123.839L127.515 28.1496L130.212 15.4655ZM140.378 18.6056C140.99 17.559 141.799 16.7342 142.807 16.131C143.816 15.5292 144.942 15.2285 146.186 15.2285V19.7032H144.971C141.909 19.7032 140.378 21.1256 140.378 23.9702V31.8835H136.199V15.4655H140.378V18.6056ZM148.024 10.7513C148.024 10.0798 148.261 9.53185 148.735 9.10765C149.21 8.68261 149.832 8.46985 150.602 8.46985C151.373 8.46985 151.995 8.68261 152.47 9.10765C152.944 9.53185 153.181 10.0798 153.181 10.7513C153.181 11.4035 152.944 11.9422 152.47 12.3676C151.995 12.7927 151.373 13.0055 150.602 13.0055C149.832 13.0055 149.21 12.7927 148.735 12.3676C148.261 11.9422 148.024 11.4035 148.024 10.7513ZM148.498 15.4655H152.677V31.8835H148.498V15.4655ZM163.614 28.2967H165.243V31.8835H163.049C161.212 31.8835 159.804 31.4394 158.826 30.5507C157.848 29.6608 157.359 28.1791 157.359 26.105V18.9917H155.077V15.4655H157.359V11.4041H161.538V15.4655H165.213V18.9917H161.538V26.1638C161.538 26.9544 161.696 27.508 162.012 27.824C162.328 28.1392 162.862 28.2967 163.614 28.2967ZM183.677 23.0513C183.677 23.4666 183.628 23.9411 183.53 24.4741H171.497C171.555 25.9363 171.951 27.0133 172.682 27.7046C173.413 28.396 174.322 28.7417 175.409 28.7417C176.377 28.7417 177.182 28.5046 177.823 28.0301C178.465 27.5569 178.875 26.9154 179.053 26.105H183.469C183.252 27.251 182.788 28.2781 182.078 29.1866C181.365 30.0961 180.452 30.8076 179.336 31.3211C178.219 31.8346 176.98 32.0914 175.617 32.0914C174.016 32.0914 172.593 31.7507 171.348 31.0692C170.104 30.3876 169.136 29.4144 168.445 28.1496C167.752 26.8848 167.406 25.3928 167.406 23.6744C167.406 21.955 167.752 20.4583 168.445 19.1849C169.136 17.91 170.104 16.9366 171.348 16.2653C172.593 15.5936 174.016 15.2578 175.617 15.2578C177.236 15.2578 178.653 15.5936 179.869 16.2653C181.084 16.9366 182.022 17.8604 182.684 19.036C183.346 20.2112 183.677 21.5497 183.677 23.0513ZM179.469 22.6378C179.528 21.293 179.178 20.2748 178.417 19.5839C177.656 18.8923 176.722 18.5468 175.617 18.5468C174.49 18.5468 173.541 18.8923 172.771 19.5839C172 20.2748 171.575 21.293 171.497 22.6378H179.469Z" fill="black"/>
<path d="M20.5989 20.1306C20.5848 20.1658 20.4018 20.8834 20.2053 21.7348C20.001 22.5859 19.6773 23.9297 19.4947 24.7245C19.1427 26.1808 18.9317 27.1375 18.9317 27.264C18.9317 27.2991 19.1499 27.3275 19.4169 27.3275H19.9027L20.1205 26.3565C20.2473 25.8291 20.529 24.6189 20.7539 23.6692C20.9791 22.7195 21.2532 21.5657 21.3589 21.1012C21.4644 20.6369 21.57 20.2152 21.5911 20.1658C21.6122 20.1025 21.4925 20.0817 21.1266 20.0817C20.8521 20.0817 20.6129 20.1025 20.5989 20.1306ZM16.821 23.1766L16.1738 23.8803L16.364 24.1054C16.4693 24.2319 16.7581 24.5485 17.0041 24.8091L17.4545 25.287H18.735L18.1297 24.6329C17.7989 24.2815 17.5245 23.9435 17.5245 23.9015C17.5245 23.8522 17.7779 23.5359 18.0877 23.1979C18.3971 22.8535 18.6504 22.5576 18.6504 22.5226C18.6504 22.4943 18.3831 22.4733 18.0596 22.4733H17.4756L16.821 23.1766ZM21.7455 22.5155C21.7455 22.5367 21.8653 22.6701 22.0129 22.8179C22.562 23.3667 22.9488 23.8312 22.9275 23.9223C22.9137 23.9719 22.6461 24.3023 22.3226 24.6469L21.7388 25.287H22.3929L23.0472 25.2802L23.6449 24.6258C23.976 24.2603 24.2432 23.9363 24.2432 23.8943C24.2432 23.8593 23.9618 23.5285 23.6099 23.1558L22.9772 22.4733H22.3647C22.02 22.4733 21.7455 22.4943 21.7455 22.5155Z" fill="black"/>
</svg>
