<svg id="Layer_1" data-name="Layer 1" xmlns="http://www.w3.org/2000/svg" viewBox="0 0 159.82 95.82"><defs><style>.cls-1{fill:#d7dde6;}.cls-2{fill:#fff;}.cls-3,.cls-4{fill:#c3cad1;}.cls-3{fill-rule:evenodd;}.cls-5{fill:#f2f3f9;}</style></defs><rect class="cls-1" width="159.82" height="95.82" rx="3.42"/><rect class="cls-2" x="2.2" y="10.62" width="155.52" height="83.08" rx="1.44"/><path class="cls-3" d="M77.51,57.51h0M70.06,43.64a49.76,49.76,0,0,0,9.5-3.74A49,49,0,0,0,89,43.64c0,.66.4,21.78-9.46,21.78S70.06,44.14,70.06,43.64ZM79.56,68C92.3,68,91.8,42.48,91.8,41.72a62,62,0,0,1-12.24-4.83,64.48,64.48,0,0,1-12.28,4.83c0,.6-.5,26.35,12.28,26.31Z"/><path class="cls-3" d="M82.2,46.18,80.67,47.7,85,52.06l1.52-1.52Z"/><path class="cls-3" d="M86.4,47.7l-1.52-1.52-4.35,4.36,1.52,1.52Z"/><path class="cls-3" d="M74.15,46.18,72.62,47.7,77,52.06l1.52-1.52Z"/><path class="cls-3" d="M78.35,47.7l-1.52-1.52-4.35,4.36L74,52.06Z"/><path class="cls-3" d="M79.76,58.26A2.15,2.15,0,0,1,82,60.37v.07H84.2a4.41,4.41,0,0,0-8.81,0h2.22a2.15,2.15,0,0,1,2.12-2.18h0Z"/><circle class="cls-2" cx="4.13" cy="5.14" r="1.47"/><circle class="cls-2" cx="8.05" cy="5.14" r="1.47"/><circle class="cls-2" cx="12.07" cy="5.14" r="1.47"/><path class="cls-4" d="M59,40.5V64.77a1.4,1.4,0,0,1-1.48,1.48h0A1.4,1.4,0,0,1,56,64.77V40.5A1.4,1.4,0,0,1,57.5,39h0A1.4,1.4,0,0,1,59,40.5Z"/><path class="cls-4" d="M58.48,41.07,43.4,59.42a1.4,1.4,0,0,1-2.09.2h0a1.41,1.41,0,0,1-.2-2.09L56.19,39.18a1.41,1.41,0,0,1,2.09-.2h0A1.41,1.41,0,0,1,58.48,41.07Z"/><path class="cls-4" d="M61.65,60.09H42.14a1.4,1.4,0,0,1-1.48-1.48h0a1.4,1.4,0,0,1,1.48-1.48H61.65a1.4,1.4,0,0,1,1.49,1.48h0A1.4,1.4,0,0,1,61.65,60.09Z"/><path class="cls-4" d="M113.08,40.53V64.8a1.4,1.4,0,0,1-1.48,1.48h0a1.4,1.4,0,0,1-1.48-1.48V40.53a1.4,1.4,0,0,1,1.48-1.48h0A1.4,1.4,0,0,1,113.08,40.53Z"/><path class="cls-4" d="M112.58,41.1,97.5,59.45a1.39,1.39,0,0,1-2.08.2h0a1.39,1.39,0,0,1-.2-2.08L110.3,39.21a1.4,1.4,0,0,1,2.08-.2h0A1.4,1.4,0,0,1,112.58,41.1Z"/><path class="cls-4" d="M115.76,60.12H96.25a1.4,1.4,0,0,1-1.48-1.48h0a1.4,1.4,0,0,1,1.48-1.48h19.51a1.4,1.4,0,0,1,1.48,1.48h0A1.4,1.4,0,0,1,115.76,60.12Z"/><path class="cls-1" d="M122.25,78.91h-1v-1a.88.88,0,1,0-1.75,0v1h-1.06a.88.88,0,0,0,0,1.75h1.06v1.06a.88.88,0,0,0,1.75,0V80.66h1a.88.88,0,1,0,0-1.75Z"/><path class="cls-1" d="M87.83,20.23h-1V19.18a.88.88,0,1,0-1.76,0v1.05H84A.88.88,0,1,0,84,22h1V23a.88.88,0,0,0,1.76,0V22h1a.88.88,0,0,0,0-1.76Z"/><path class="cls-1" d="M151.5,19.11h0a.83.83,0,0,1,.88.88h0a.83.83,0,0,1-.88.88h0a.84.84,0,0,1-.88-.88h0A.94.94,0,0,1,151.5,19.11Z"/><path class="cls-1" d="M5.6,41.78h0a.83.83,0,0,1,.88.87h0a.83.83,0,0,1-.88.88h0a.83.83,0,0,1-.87-.88h0A.93.93,0,0,1,5.6,41.78Z"/><path class="cls-1" d="M44.74,83.68h0a.83.83,0,0,1,.88.87h0a.83.83,0,0,1-.88.88h0a.83.83,0,0,1-.87-.88h0A.93.93,0,0,1,44.74,83.68Z"/><path class="cls-5" d="M57,18h0a.83.83,0,0,1,.88.88h0a.83.83,0,0,1-.88.87h0a.82.82,0,0,1-.87-.87h0A.93.93,0,0,1,57,18Z"/><path class="cls-1" d="M149.75,85.8h0a.83.83,0,0,1,.87.88h0a.82.82,0,0,1-.87.87h0a.83.83,0,0,1-.88-.87h0A.94.94,0,0,1,149.75,85.8Z"/><path class="cls-5" d="M91.81,75.1h0a.83.83,0,0,1,.87.88h0a.83.83,0,0,1-.87.88h0a.83.83,0,0,1-.88-.88h0A.94.94,0,0,1,91.81,75.1Z"/><path class="cls-1" d="M17.6,13.55h0a.83.83,0,0,1,.87.88h0a.82.82,0,0,1-.87.87h0a.83.83,0,0,1-.88-.87h0A.94.94,0,0,1,17.6,13.55Z"/><path class="cls-5" d="M20.73,28.27h.7a6.58,6.58,0,0,1,7.72-5.09,6.38,6.38,0,0,1,4.56,3.33c.36,0,.71-.17,1.06-.17A4.83,4.83,0,1,1,35.29,36H20.73a3.89,3.89,0,0,1-3.86-3.86,3.78,3.78,0,0,1,3.86-3.86Z"/><path class="cls-1" d="M15.87,82.79a3.71,3.71,0,0,1-3.69-3.69,3.75,3.75,0,0,1,3.69-3.86,3.7,3.7,0,0,1,3.68,3.69,3.85,3.85,0,0,1-3.68,3.86Zm0-5.79a2,2,0,0,0-1.93,2.1,1.93,1.93,0,0,0,3.86,0A2,2,0,0,0,15.87,77Z"/><path class="cls-5" d="M140.94,58.05a3.7,3.7,0,0,1-3.69-3.68,3.75,3.75,0,0,1,3.69-3.86,3.7,3.7,0,0,1,3.68,3.68,3.86,3.86,0,0,1-3.68,3.86Zm0-5.79A2,2,0,0,0,139,54.37a1.93,1.93,0,0,0,3.86,0,2,2,0,0,0-1.93-2.11Z"/><path class="cls-5" d="M135.26,30.72H126.5a2.92,2.92,0,0,1,0-5.84h0a4.55,4.55,0,0,1,5.56-3.11,4.36,4.36,0,0,1,2.64,2,3.41,3.41,0,1,1,.75,6.78C135.45,30.72,135.36,30.72,135.26,30.72Zm-8.76-4.8a1.94,1.94,0,0,0-.28,3.86h9a2.45,2.45,0,0,0,2.36-2.64,2.53,2.53,0,0,0-2.36-2.35,1.24,1.24,0,0,0-.56.09l-.38.09-.09-.37a3.58,3.58,0,0,0-4.81-1.6,3.32,3.32,0,0,0-1.88,2.54l-.1.47-.47-.09Z"/></svg>