<svg width="105" height="69" viewBox="0 0 105 69" fill="none" xmlns="http://www.w3.org/2000/svg">
<g clip-path="url(#clip0_818_2645)">
<path fill-rule="evenodd" clip-rule="evenodd" d="M8.18457 51.4444C6.94537 51.4444 6.59131 51.9755 6.59131 53.1793V55.1974H9.88404L9.56539 58.4194H6.59131V68.2267H2.66128V58.4194H0.00585938V55.1974H2.66128V53.2501C2.66128 49.9928 3.97129 48.2579 7.65348 48.2579C8.397 48.2579 9.17593 48.3287 9.91945 48.3996V51.4444H8.18457Z" fill="#1877F2"/>
<path fill-rule="evenodd" clip-rule="evenodd" d="M10.168 61.2872C10.168 57.6404 11.8674 54.9142 15.4788 54.9142C17.4615 54.9142 18.6653 55.9055 19.2318 57.1801V55.1974H23.0202V68.2267H19.2318V66.244C18.7007 67.4832 17.4615 68.4746 15.4788 68.4746C11.8674 68.4746 10.168 65.7483 10.168 62.1015V61.2872ZM14.098 62.1723C14.098 64.1197 14.8061 65.3943 16.6472 65.3943C18.2405 65.3943 19.0902 64.2259 19.0902 62.3494V61.0394C19.0902 59.1983 18.2405 57.9945 16.6472 57.9945C14.8061 57.9945 14.098 59.3045 14.098 61.2518V62.1723Z" fill="#1877F2"/>
<path fill-rule="evenodd" clip-rule="evenodd" d="M31.2329 54.9142C32.7554 54.9142 34.207 55.2328 34.9859 55.7993L34.1362 58.561C33.2865 58.1715 32.4013 57.9945 31.4808 57.9591C29.3564 57.9591 28.4359 59.1983 28.4359 61.3226V62.0661C28.4359 64.1905 29.3564 65.4297 31.4808 65.4297C32.4013 65.4297 33.2865 65.2172 34.1362 64.8278L34.9859 67.5894C34.207 68.1559 32.7554 68.4746 31.2329 68.4746C26.5948 68.4746 24.5059 65.9962 24.5059 61.9953V61.3934C24.5059 57.3926 26.5948 54.9142 31.2329 54.9142Z" fill="#1877F2"/>
<path fill-rule="evenodd" clip-rule="evenodd" d="M35.5176 62.2078V61.0394C35.5176 57.3572 37.6065 54.9142 41.926 54.9142C45.9623 54.9142 47.7325 57.3926 47.7325 61.004V63.0929H39.4476C39.5538 64.8632 40.3328 65.6421 42.5279 65.6421C43.9795 65.6421 45.5374 65.3589 46.7058 64.8632L47.4139 67.554C46.3871 68.0851 44.2628 68.51 42.3509 68.51C37.3941 68.51 35.5176 66.0316 35.5176 62.2078ZM39.4476 60.5083H44.2274V60.1542C44.2274 58.738 43.6609 57.605 41.926 57.605C40.1557 57.605 39.4476 58.738 39.4476 60.5083Z" fill="#1877F2"/>
<path fill-rule="evenodd" clip-rule="evenodd" d="M62.355 62.1016C62.355 65.7483 60.5847 68.4746 57.0087 68.4746C55.026 68.4746 53.6452 67.5186 53.1141 66.244V68.2267H49.3965V48.6474L53.3265 48.2933V57.0031C53.893 55.8347 55.1676 54.9142 57.0087 54.9142C60.6201 54.9142 62.355 57.6404 62.355 61.2872V62.1016ZM58.4249 61.2164C58.4249 59.3753 57.7168 57.9945 55.8049 57.9945C54.2117 57.9945 53.3265 59.1629 53.3265 61.004V62.3848C53.3265 64.2259 54.2117 65.3943 55.8049 65.3943C57.7168 65.3943 58.4249 64.0135 58.4249 62.2078V61.2164Z" fill="#1877F2"/>
<path fill-rule="evenodd" clip-rule="evenodd" d="M63.666 62.0307V61.358C63.666 57.605 65.7904 54.9142 70.1453 54.9142C74.5002 54.9142 76.6245 57.605 76.6245 61.358V62.0307C76.6245 65.7837 74.5002 68.4746 70.1453 68.4746C65.7904 68.4746 63.666 65.7837 63.666 62.0307ZM72.6945 61.1102C72.6945 59.3753 71.9863 57.9945 70.1453 57.9945C68.3042 57.9945 67.596 59.3753 67.596 61.1102V62.314C67.596 64.0134 68.3042 65.3943 70.1453 65.3943C71.9863 65.3943 72.6945 64.0134 72.6945 62.314V61.1102Z" fill="#1877F2"/>
<path fill-rule="evenodd" clip-rule="evenodd" d="M77.9336 62.0307V61.358C77.9336 57.605 80.0933 54.9142 84.4482 54.9142C88.7677 54.9142 90.9275 57.605 90.9275 61.358V62.0307C90.9275 65.7837 88.7677 68.4746 84.4482 68.4746C80.0933 68.4746 77.9336 65.7837 77.9336 62.0307ZM86.9974 61.1102C86.9974 59.3753 86.2539 57.9945 84.4482 57.9945C82.6071 57.9945 81.899 59.3753 81.899 61.1102V62.314C81.899 64.0134 82.6071 65.3943 84.4482 65.3943C86.2539 65.3943 86.9974 64.0134 86.9974 62.314V61.1102Z" fill="#1877F2"/>
<path fill-rule="evenodd" clip-rule="evenodd" d="M96.3443 61.3934L100.204 55.1974H104.417L100.345 61.6059L104.558 68.2267H100.381L96.3443 61.8183V68.2267H92.3789V48.6474L96.3443 48.2933V61.3934Z" fill="#1877F2"/>
<path d="M52.3008 42.6993C64.0919 42.6993 73.6504 33.1407 73.6504 21.3496C73.6504 9.55855 64.0919 0 52.3008 0C40.5097 0 30.9512 9.55855 30.9512 21.3496C30.9512 33.1407 40.5097 42.6993 52.3008 42.6993Z" fill="#1977F3"/>
<path fill-rule="evenodd" clip-rule="evenodd" d="M60.6205 27.5456L61.541 21.3496H55.6283V17.3488C55.6283 15.6847 56.4426 14.0206 59.098 14.0206H61.7889V8.74518C61.7889 8.74518 59.3459 8.35571 57.0091 8.35571C52.1585 8.35571 48.9366 11.2944 48.9366 16.6406V21.3496H43.5195V27.5456H48.9366V42.4868C50.0342 42.6284 51.1672 42.7346 52.3001 42.7346C53.4331 42.7346 54.5307 42.6284 55.6283 42.4868V27.5456H60.6205Z" fill="white"/>
</g>
<defs>
<clipPath id="clip0_818_2645">
<rect width="104.563" height="68.51" fill="white"/>
</clipPath>
</defs>
</svg>
