<svg width="104" height="21" viewBox="0 0 104 21" fill="none" xmlns="http://www.w3.org/2000/svg">
<g clip-path="url(#clip0_818_2682)">
<path d="M77.026 7.46827V20.5597H72.8086V5.41815L77.026 7.46827Z" fill="#F37368"/>
<path d="M17.3379 18.1289L20.5009 20.8819L33.8267 13.9408L32.4502 10.6313L17.3379 18.1289ZM72.8083 9.69409L83.5275 4.12948L81.7116 0.995728L72.8083 5.41813V9.69409Z" fill="#F7A199"/>
<path d="M42.6422 6.44319V20.5597H38.6006V0.43927L42.6422 6.44319ZM17.3379 18.1289L20.5009 20.8819L26.5927 5.65243L24.6305 0.43927L17.3379 18.1289Z" fill="#F37368"/>
<path d="M24.6309 0.43927H28.7897L36.4923 20.5597H32.2163L24.6309 0.43927ZM43.2577 0.43927L52.1317 14.1751V20.5597L38.601 0.43927H43.2577ZM59.7465 0.43927H63.9346V20.5597H59.7465V0.43927ZM72.8087 4.12949H66.3654V0.43927H81.3899L83.5279 4.12949H77.0261H72.8087Z" fill="#F04939"/>
<path d="M95.9166 12.9157V20.5597H91.7578V12.9157" fill="#F7A199"/>
<path d="M98.7868 0.43927L91.7578 12.9157H95.9166L103.209 0.43927H98.7868Z" fill="#F04939"/>
<path d="M91.7574 12.9157L84.4941 0.43927H89.063L93.954 8.9912L91.7574 12.9157Z" fill="#F37368"/>
<path d="M1.72814 2.78229C1.72814 5.56459 3.4561 7.23398 6.91201 8.1126L10.5729 8.96193C13.8531 9.72341 15.8447 11.5978 15.8447 14.6437C15.874 15.9616 15.4347 17.2503 14.6439 18.3046C14.6439 15.2587 13.0624 13.6186 9.28429 12.6229L5.68194 11.8028C2.78248 11.1585 0.556641 9.60626 0.556641 6.29678C0.556641 5.03742 0.966665 3.77806 1.72814 2.78229Z" fill="#F04939"/>
<path d="M52.1309 13.15V0.43927H56.1725V20.5597H52.1309V13.15Z" fill="#F37368"/>
<path d="M12.3886 13.8822C13.9408 14.878 14.6437 16.2838 14.6437 18.3046C13.3258 19.974 11.0707 20.8819 8.40551 20.8819C3.92453 20.8819 0.732204 18.6561 0.0585938 14.8194H4.36384C4.92031 16.5767 6.38468 17.3967 8.37622 17.3967C10.7485 17.426 12.3593 16.1373 12.3886 13.8822ZM1.72798 2.75299C2.98734 1.1129 5.1546 0.117126 7.79047 0.117126C12.3886 0.117126 15.0245 2.54798 15.6981 5.94532H11.5393C11.0707 4.5981 9.92845 3.54376 7.84905 3.54376C5.59392 3.57304 4.07097 4.86169 3.98311 6.91181C2.47393 6.07951 1.6694 4.45167 1.72798 2.75299Z" fill="#F37368"/>
</g>
<defs>
<clipPath id="clip0_818_2682">
<rect width="103.385" height="21" fill="white"/>
</clipPath>
</defs>
</svg>
