<svg width="116" height="22" viewBox="0 0 116 22" fill="none" xmlns="http://www.w3.org/2000/svg">
<path d="M9.77284 19.6923C9.51356 19.7121 9.31411 19.9883 9.31411 20.304C9.31411 20.3238 9.31411 20.3238 9.31411 20.3238C8.57617 20.3829 7.95788 18.686 7.21993 16.851C6.48199 14.9962 5.60442 12.9835 4.36786 12.4902C5.40498 12.1943 6.34237 11.4839 7.04043 10.4184C7.71855 9.39234 8.15733 8.01111 8.15733 6.35364C8.15733 4.36073 7.53905 2.78218 6.54182 1.69693C5.54459 0.611684 4.14847 0.01973 2.57285 0.01973C1.71523 0.01973 0.857616 0.01973 0.0199446 0.01973C0.0199446 0.01973 -0.0199446 0.394636 0.299169 0.394636C0.618282 0.394636 0.618282 2.1705 0.618282 2.32835C0.618282 4.69617 0.618282 7.06399 0.618282 9.4318C0.618282 11.8194 0.618282 14.1872 0.618282 16.555C0.618282 16.7128 0.598337 18.4887 0.299169 18.5282C0 18.5676 0 18.9228 0 18.9228C1.07701 18.8044 2.13407 18.7058 3.21108 18.6071C3.21108 18.6071 3.25096 18.2322 2.93185 18.2716C2.61274 18.3111 2.59279 16.5353 2.59279 16.3971C2.59279 15.1343 2.59279 13.8715 2.59279 12.6086C3.17119 12.7665 3.96897 14.3253 4.7867 16.042C5.60442 17.7389 6.42215 19.6134 7.00054 20.4619C7.91799 21.8036 9.37395 21.4682 9.85262 21.0538C10.1518 20.7973 10.2515 20.4816 10.2515 20.2251C10.2316 19.8897 10.0321 19.6726 9.77284 19.6923ZM2.77229 11.6615C2.71246 11.6615 2.65263 11.6812 2.59279 11.6812C2.59279 9.90536 2.59279 8.1295 2.59279 6.37337C2.59279 4.59751 2.59279 2.82165 2.59279 1.04579C4.28808 1.08525 6.26259 2.70326 6.26259 6.33391C6.26259 9.39234 4.48753 11.5431 2.77229 11.6615ZM115.379 5.70249C115.379 1.65747 113.146 0 110.393 0C109.536 0 108.658 0 107.8 0C107.8 0 107.761 0.374903 108.08 0.374903C108.399 0.374903 108.419 2.1705 108.419 2.26916C108.419 4.59751 108.419 6.92586 108.419 9.23448C108.419 11.5628 108.419 13.8912 108.419 16.2195C108.419 16.3379 108.399 18.1138 108.08 18.0941C107.78 18.0743 107.8 18.4492 107.8 18.4492C109.177 18.5479 110.553 18.6663 111.929 18.7649C114.003 18.9228 115.379 16.5944 115.379 13.5755C115.379 12.5494 115.359 10.9117 115.359 9.37261C115.379 7.83353 115.379 6.3931 115.379 5.70249ZM110.852 17.6994C110.692 17.6797 110.553 17.66 110.393 17.6205C110.393 14.8975 110.393 12.1745 110.393 9.45153C110.393 6.70881 110.393 3.98582 110.393 1.26283C112.846 1.36149 113.405 2.56513 113.405 5.66303C113.405 6.23525 113.405 7.6954 113.405 9.27395C113.405 10.8525 113.425 12.5494 113.425 13.5952C113.425 15.6473 112.447 17.8376 110.852 17.6994ZM15.9357 10.8722C15.9357 10.8722 15.0382 10.6354 15.0382 11.6615C15.0382 12.4113 14.739 15.3711 13.2232 15.5289C12.8842 15.5684 12.5252 15.5881 12.1662 15.6079C12.1662 14.2661 12.1662 12.9243 12.1662 11.5826C12.3656 11.5628 13.682 11.5431 13.682 11.918C13.682 12.2732 13.9811 12.214 13.9811 12.214C13.9811 11.4247 13.9811 10.6552 13.9811 9.8659C13.9811 9.8659 13.682 9.84617 13.682 10.1816C13.682 10.5565 12.3656 10.6749 12.1662 10.6749C12.1662 9.25421 12.1662 7.83353 12.1662 6.41284C12.1662 4.99215 12.1662 3.57146 12.1662 2.15077C12.5451 2.13103 12.9041 2.13104 13.2831 2.13104C15.1778 2.15077 13.1235 5.80115 14.3202 7.10345C14.6194 7.43889 15.0183 7.39943 15.2975 7.28103C15.6365 7.12318 15.8559 6.76801 15.8559 6.4523C15.8559 6.15632 15.6365 5.89981 15.3972 5.89981C15.1579 5.91954 14.9185 6.17606 14.9185 6.47203C14.9185 6.49176 14.9185 6.49176 14.9185 6.5115C14.8388 6.47203 14.7989 6.31418 14.7989 6.13659C14.8587 5.07107 15.7762 2.34808 15.7762 1.20364C13.7019 1.22337 11.6476 1.22337 9.57339 1.2431C9.57339 1.2431 9.5335 1.61801 9.85262 1.59827C10.1717 1.59827 10.1917 3.29521 10.1917 3.45307C10.1917 5.26839 10.1917 7.10345 10.1917 8.93851C10.1917 10.7538 10.1917 12.5889 10.1917 14.4042C10.1917 14.5423 10.1717 16.259 9.85262 16.2787C9.55345 16.2985 9.57339 16.6536 9.57339 16.6536C11.6875 16.4958 13.8016 16.3379 15.9158 16.1604C15.5767 14.5029 15.5767 13.1611 15.6365 12.2534C15.7363 11.3852 15.9357 10.8722 15.9357 10.8722ZM25.2698 15.3119C24.9307 15.3316 24.6714 13.6347 24.6515 13.6149C24.6116 13.24 24.5318 12.8651 24.4919 12.4902C25.7883 12.0167 25.4892 9.98429 24.2526 10.0238C24.2526 10.0238 24.7313 10.6552 24.2725 11.0498C24.0731 9.76724 23.8537 8.48467 23.6742 7.18238C23.4748 5.89981 23.2753 4.59751 23.0759 3.29521C23.0759 3.25575 22.8565 1.55881 23.1756 1.55881C23.4748 1.55881 23.395 1.22337 23.395 1.22337C22.298 1.22337 21.221 1.2431 20.1241 1.2431C20.1241 1.2431 20.0243 1.57854 20.3235 1.57854C20.6426 1.55881 20.3435 3.25575 20.3235 3.33467C19.9845 5.0908 19.6255 6.84694 19.2864 8.6228C18.9673 10.3987 18.6083 12.1548 18.2692 13.9307C18.2493 14.0293 17.8903 15.7262 17.5712 15.746C17.272 15.7657 17.2521 16.1209 17.2521 16.1209C18.0897 16.0617 18.9074 16.0025 19.7651 15.963C19.7651 15.963 19.8648 15.6276 19.5457 15.6473C19.2665 15.6671 19.4858 14.2858 19.5457 13.9504C19.6853 13.1808 20.3235 11.5431 22.5174 12.3126C22.5773 12.7862 22.657 13.24 22.7368 13.7136C22.7568 13.8123 22.9761 15.4303 22.6371 15.45C22.3379 15.4697 22.4376 15.8052 22.4376 15.8052C23.4947 15.746 24.5518 15.6868 25.6088 15.6276C25.5689 15.6079 25.549 15.2921 25.2698 15.3119ZM19.9246 11.6812C20.144 10.4973 20.3834 9.33314 20.6027 8.16897C20.8221 7.00479 21.0615 5.84061 21.2809 4.67644C21.4404 5.78142 21.6 6.86667 21.7595 7.95192C21.9191 9.03717 22.0986 10.1224 22.2781 11.2077C21.6399 11.109 20.9019 11.0695 19.9246 11.6812ZM31.1135 11.1287C32.1307 11.109 32.1506 14.2661 30.3357 14.345C29.5579 14.3648 29.0193 13.0625 29.0193 12.0167C29.0193 10.7736 29.0193 9.55019 29.0193 8.32682C29.0193 7.10345 29.0193 5.88008 29.0193 4.63697C29.0193 3.57146 29.5778 2.01264 30.4753 2.01264C32.1905 1.99291 30.3157 5.46571 31.5124 6.68908C31.8315 7.02452 32.2105 6.98506 32.5096 6.86667C32.8088 6.72855 33.0481 6.41284 33.0481 6.09713C33.0481 5.80115 32.8487 5.5841 32.5894 5.5841C32.3301 5.5841 32.1307 5.82088 32.1307 6.11686C32.1307 6.13659 32.1307 6.15632 32.1307 6.15632C32.031 6.11686 31.9711 5.97874 31.9911 5.80115C32.0509 4.81456 33.0083 2.24943 33.0083 1.18391C32.1108 1.18391 31.2332 1.14444 30.3556 1.18391C28.5806 1.26284 27.0648 2.70326 27.0648 4.6567C27.0648 5.89981 27.0648 7.12318 27.0648 8.36628C27.0648 9.60939 27.0648 10.8328 27.0648 12.0759C27.0648 13.9898 28.5207 15.45 30.3157 15.3711C32.1706 15.2921 33.2476 13.9109 33.2476 12.0167C33.2276 9.74751 31.1135 10.1619 31.1135 11.1287ZM42.0232 5.48544C41.744 5.48544 41.5445 5.72222 41.5445 5.99847C41.5445 6.0182 41.5445 6.0182 41.5445 6.03793C41.4648 5.99847 41.4249 5.88008 41.4249 5.70249C41.4847 4.73563 42.3822 2.22969 42.3822 1.16418C39.7695 1.18391 37.1368 1.18391 34.5241 1.18391C34.5241 2.26916 35.4415 4.79483 35.5213 5.76169C35.5412 5.93927 35.4814 6.05766 35.3817 6.11686C35.4016 6.09713 35.4016 6.09713 35.4016 6.0774C35.4016 5.78142 35.1822 5.56437 34.9229 5.56437C34.6836 5.56437 34.4642 5.80115 34.4642 6.09713C34.4642 6.43257 34.7833 6.74828 35.0227 6.84694C35.2819 6.96533 35.6808 6.96532 35.98 6.62988C37.1767 5.36705 35.1224 2.03238 37.0171 1.97318C37.1567 1.95345 37.2963 1.95345 37.436 1.95345C37.436 3.82797 37.436 5.68276 37.436 7.51782C37.436 9.39234 37.436 11.2471 37.436 13.1019C37.436 13.2203 37.416 14.7791 37.1168 14.7791C36.7977 14.7989 36.8376 15.1146 36.8376 15.1146C37.8947 15.0751 38.9717 15.0554 40.0487 15.0356C40.0487 15.0356 40.0886 14.7199 39.7695 14.7199C39.4504 14.7397 39.4304 13.1611 39.4304 13.0625C39.4304 11.2077 39.4304 9.35287 39.4304 7.49809C39.4304 5.6433 39.4304 3.80824 39.4304 1.95345C39.57 1.95345 39.7296 1.95345 39.8692 1.95345C41.7639 1.99291 39.7096 5.32759 40.9063 6.55096C41.2254 6.86667 41.6044 6.86667 41.9035 6.74828C42.1828 6.62989 42.442 6.29444 42.442 5.99847C42.462 5.72222 42.2825 5.48544 42.0232 5.48544ZM55.5257 14.5818C55.1866 14.5818 54.9273 12.9638 54.9074 12.9243C54.8675 12.5692 54.7877 12.214 54.7478 11.8588C56.0442 11.4642 55.7451 9.51073 54.5085 9.51073C54.5085 9.51073 54.9872 10.1421 54.5285 10.4973C54.329 9.27395 54.1096 8.03084 53.9301 6.80747C53.7307 5.5841 53.5312 4.341 53.3517 3.11763C53.3318 3.07816 53.1124 1.46015 53.4315 1.46015C53.7307 1.47988 53.6509 1.14445 53.6509 1.14445C52.5539 1.14445 51.4769 1.14445 50.3999 1.14445C50.3999 1.14445 50.2803 1.46015 50.5994 1.46015C50.9185 1.46015 50.6193 3.01897 50.5994 3.09789C50.2603 4.73563 49.9013 6.37337 49.5623 7.99138C49.2232 9.62912 48.8841 11.2669 48.5451 12.9046C48.5251 13.0033 48.1661 14.5621 47.847 14.5621C47.5479 14.5621 47.508 14.8778 47.508 14.8778C48.3456 14.8778 49.1634 14.858 50.021 14.858C50.021 14.858 50.1207 14.5423 49.8016 14.5423C49.5224 14.5621 49.7418 13.2795 49.8016 12.9638C49.9611 12.2534 50.5794 10.7538 52.7733 11.5628C52.8332 12.0167 52.9129 12.4508 52.9927 12.8849C53.0127 12.9835 53.2321 14.5226 52.893 14.5226C52.5938 14.5226 52.6936 14.8383 52.6936 14.8383C53.7506 14.8383 54.8077 14.858 55.8647 14.858C55.8248 14.8975 55.8049 14.5818 55.5257 14.5818ZM50.1805 10.9314C50.3999 9.84617 50.6393 8.76092 50.8587 7.65594C51.078 6.57069 51.3174 5.48544 51.5368 4.38046C51.6963 5.40651 51.8559 6.4523 52.0354 7.47835C52.1949 8.50441 52.3545 9.55019 52.534 10.5762C51.8958 10.4381 51.1578 10.3789 50.1805 10.9314ZM61.3295 1.16418C59.9733 1.16418 58.637 1.16418 57.3007 1.16418C57.3007 1.16418 57.2609 1.47989 57.58 1.47989C57.8791 1.47989 57.8991 3.0387 57.8991 3.11763C57.8991 4.75537 57.8991 6.3931 57.8991 8.01111C57.8991 9.64885 57.8991 11.2866 57.8991 12.9046C57.8991 13.0033 57.8791 14.5621 57.58 14.5621C57.2609 14.5423 57.3007 14.8778 57.3007 14.8778C58.637 14.8975 59.9933 14.9172 61.3295 14.937C63.1644 14.9567 64.6204 13.4966 64.6204 11.6418C64.6204 10.4579 64.6204 9.25422 64.6204 8.07031C64.6204 6.8864 64.6204 5.68276 64.6204 4.49885C64.6204 2.64406 63.1644 1.16418 61.3295 1.16418ZM62.6858 11.6418C62.6858 13.0625 61.6487 14.2069 60.3722 14.1872C60.1927 14.1872 60.0332 14.1674 59.8736 14.1082C59.8736 12.0759 59.8736 10.0632 59.8736 8.03084C59.8736 5.99847 59.8736 3.98582 59.8736 1.95345C60.0332 1.91398 60.1927 1.89425 60.3722 1.89425C61.6487 1.91398 62.6858 3.07816 62.6858 4.47912C62.6858 5.66303 62.6858 6.86667 62.6858 8.05058C62.6858 9.25422 62.6858 10.4579 62.6858 11.6418ZM71.3018 1.18391C71.3018 1.18391 71.2021 1.49962 71.5013 1.49962C71.8403 1.49962 71.5212 3.13736 71.5013 3.17682C71.1822 4.61724 70.9029 6.07739 70.6038 7.51782C70.3046 8.95824 70.0054 10.3987 69.7063 11.8391C69.4669 10.3789 69.2276 8.93851 69.0082 7.49809C68.7888 6.05766 68.5694 4.59751 68.35 3.15709C68.3301 3.05843 68.0708 1.47989 68.4099 1.47989C68.709 1.49962 68.6293 1.16418 68.6293 1.16418C67.5523 1.16418 66.4752 1.16418 65.4182 1.16418C65.4182 1.16418 65.4381 1.47989 65.7373 1.47989C66.0564 1.47989 66.3356 3.09789 66.3556 3.15709C66.6149 4.79483 66.8741 6.4523 67.1334 8.10977C67.3927 9.76724 67.652 11.4247 67.9312 13.0822C67.9511 13.1217 68.1705 14.7594 67.8514 14.7594C67.5523 14.7594 67.632 15.0751 67.632 15.0751C68.729 15.1146 69.806 15.1343 70.9029 15.1738C70.9029 15.1738 71.0027 14.858 70.7035 14.8383C70.3844 14.8383 70.6835 13.24 70.7035 13.1611C71.0426 11.5036 71.4016 9.84617 71.7406 8.1887C72.0797 6.53123 72.4187 4.87375 72.7777 3.19655C72.7977 3.09789 73.1567 1.51935 73.4758 1.51935C73.7949 1.51935 73.7949 1.18391 73.7949 1.18391C72.9572 1.18391 72.1196 1.18391 71.3018 1.18391ZM81.4736 15.233C81.1544 15.2132 80.8752 13.536 80.8752 13.4966C80.8353 13.1216 80.7556 12.7467 80.7157 12.3718C82.0121 11.9969 81.7129 9.94483 80.4763 9.90536C80.4763 9.90536 80.975 10.5762 80.4963 10.9314C80.2968 9.64885 80.0974 8.36628 79.8979 7.08372C79.6985 5.80115 79.4991 4.51858 79.3195 3.25575C79.2996 3.21628 79.0802 1.53908 79.3794 1.53908C79.6985 1.53908 79.5988 1.20364 79.5988 1.20364C78.5018 1.20364 77.4248 1.18391 76.3478 1.18391C76.3478 1.18391 76.2481 1.51935 76.5472 1.51935C76.8863 1.51935 76.5672 3.13736 76.5472 3.21628C76.2082 4.89349 75.8492 6.57069 75.5101 8.2479C75.1711 9.9251 74.832 11.5826 74.493 13.2598C74.473 13.3584 74.114 14.937 73.7949 14.937C73.4957 14.9172 73.4558 15.2527 73.4558 15.2527C74.2935 15.2921 75.1112 15.3119 75.9689 15.3513C75.9689 15.3513 76.0686 15.0159 75.7495 15.0159C75.4702 15.0159 75.6896 13.7136 75.7495 13.3979C75.909 12.6678 76.5273 11.1485 78.7212 12.0561C78.781 12.51 78.8608 12.9638 78.9406 13.4374C78.9605 13.536 79.16 15.154 78.8409 15.154C78.5417 15.1343 78.6215 15.4697 78.6215 15.4697C79.6786 15.5092 80.7356 15.5684 81.8126 15.6079C81.7927 15.5881 81.7528 15.2527 81.4736 15.233ZM76.1284 11.2669C76.3478 10.1421 76.5871 9.03716 76.8065 7.91245C77.0259 6.80747 77.2653 5.68276 77.4846 4.55805C77.6442 5.62356 77.8237 6.68908 77.9833 7.7546C78.1428 8.83985 78.3024 9.90536 78.4819 10.9709C77.8437 10.813 77.1057 10.7144 76.1284 11.2669ZM90.4087 15.6868C90.0896 15.667 90.0697 13.9898 90.0697 13.8912C90.0697 12.1351 90.0697 10.3789 90.0697 8.6228C90.0697 6.86667 90.0697 5.11054 90.0697 3.35441C90.0697 3.23602 90.1096 1.57854 90.4087 1.57854C90.7079 1.57854 90.688 1.2431 90.688 1.2431C89.6109 1.22337 88.5339 1.22337 87.4769 1.22337C87.4769 1.22337 87.437 1.55881 87.7561 1.55881C88.0752 1.55881 88.0752 3.17682 88.0752 3.33467C88.0752 4.2818 88.0752 5.24866 88.0752 6.19579C88.0752 7.14291 88.0752 8.09004 88.0752 9.0569C87.6963 7.7546 87.3173 6.43257 86.9583 5.13027C86.5794 3.82797 86.2004 2.52567 85.8414 1.22337C84.9838 1.22337 84.1062 1.20364 83.2486 1.20364C83.2486 1.20364 83.2087 1.53908 83.5278 1.53908C83.847 1.55881 83.8669 3.15709 83.8669 3.27548C83.8669 4.99214 83.8669 6.70881 83.8669 8.42548C83.8669 10.1421 83.8669 11.8588 83.8669 13.5755C83.8669 13.7136 83.847 15.3119 83.5278 15.2921C83.2287 15.2724 83.2486 15.6079 83.2486 15.6079C84.0863 15.6473 84.904 15.6868 85.7616 15.7262C85.7616 15.7262 85.7816 15.3908 85.4824 15.3908C85.1434 15.3711 85.1434 13.5952 85.1434 13.5952C85.1434 12.2534 85.1434 10.892 85.1434 9.53046C85.1434 8.1887 85.1434 6.8272 85.1434 5.46571C85.622 7.18238 86.1406 8.89904 86.6193 10.6157C87.0979 12.3521 87.6165 14.0885 88.0952 15.8446C88.9528 15.8841 89.8303 15.9433 90.7079 15.9828C90.688 16.042 90.7079 15.7065 90.4087 15.6868ZM96.3123 11.8785C97.3295 11.918 97.3494 15.3316 95.5345 15.233C94.7367 15.1738 94.2181 13.7531 94.2181 12.6284C94.2181 11.3458 94.2181 10.0435 94.2181 8.76092C94.2181 7.47835 94.2181 6.17605 94.2181 4.87375C94.2181 3.76877 94.7766 2.13104 95.6741 2.13104C97.3694 2.15077 95.5145 5.78142 96.6913 7.16265C97.0104 7.53755 97.3893 7.49809 97.6885 7.39943C98.0076 7.2613 98.2469 6.94559 98.2469 6.59042C98.2469 6.27471 98.0475 6.0182 97.7882 6.0182C97.5289 6.0182 97.3295 6.27471 97.3295 6.57069C97.3295 6.59042 97.3295 6.61015 97.3295 6.61015C97.2298 6.57069 97.1899 6.41283 97.1899 6.23525C97.2497 5.16973 98.1871 2.44674 98.1871 1.28257C97.2896 1.28257 96.432 1.2431 95.5544 1.26283C93.7594 1.32203 92.2636 2.80192 92.2636 4.83429C92.2636 6.11686 92.2636 7.39943 92.2636 8.68199C92.2636 9.96456 92.2636 11.2471 92.2636 12.5297C92.2636 14.5226 93.7195 16.2195 95.5345 16.3182C97.3694 16.4366 98.4464 15.0356 98.4464 12.9835C98.4065 10.5171 96.3123 10.8525 96.3123 11.8785ZM106.225 11.405C106.225 11.405 105.327 11.0695 105.327 12.1548C105.327 12.9243 105.028 15.9828 103.532 15.9433C103.173 15.9236 102.814 15.9038 102.455 15.8841C102.455 14.5226 102.455 13.1611 102.455 11.7996C102.655 11.8194 103.971 11.918 103.971 12.3126C103.971 12.6678 104.25 12.6284 104.25 12.6284C104.25 11.8194 104.25 11.0103 104.25 10.2013C104.25 10.2013 103.971 10.1421 103.971 10.4973C103.971 10.892 102.655 10.8722 102.455 10.8722C102.455 9.4318 102.455 7.97165 102.455 6.53123C102.455 5.0908 102.455 3.63065 102.455 2.19023C102.834 2.19023 103.193 2.19023 103.572 2.20996C105.467 2.26916 103.413 5.959 104.609 7.39943C104.908 7.7546 105.307 7.7546 105.567 7.63621C105.906 7.49809 106.125 7.14291 106.125 6.80747C106.125 6.49176 105.906 6.21552 105.666 6.21552C105.407 6.19579 105.188 6.47203 105.188 6.78774C105.188 6.80747 105.188 6.80747 105.188 6.8272C105.088 6.76801 105.048 6.62988 105.068 6.43257C105.128 5.32759 106.065 2.52567 106.065 1.32203C103.991 1.3023 101.937 1.3023 99.8625 1.3023C99.8625 1.3023 99.8226 1.65747 100.142 1.65747C100.441 1.65747 100.461 3.35441 100.461 3.51226C100.461 5.32759 100.461 7.16265 100.461 8.97797C100.461 10.7933 100.461 12.6086 100.461 14.4437C100.461 14.5818 100.441 16.2787 100.142 16.259C99.8226 16.2393 99.8625 16.5944 99.8625 16.5944C101.977 16.7326 104.091 16.8707 106.205 17.0088C105.866 15.233 105.866 13.832 105.926 12.8651C106.045 11.9377 106.225 11.405 106.225 11.405Z" fill="white"/>
</svg>
