<svg width="137" height="46" viewBox="0 0 137 46" fill="none" xmlns="http://www.w3.org/2000/svg">
<path d="M37.0857 9.31998C37.0857 9.06664 36.8157 8.93997 36.6807 8.93997C36.5457 8.93997 32.7657 8.68664 32.7657 8.68664L29.9307 6.02664C29.6607 5.77331 29.1207 5.89998 28.8507 5.89998C28.8507 5.89998 28.3107 6.02664 27.3657 6.27997C26.5557 3.99997 24.9357 1.84664 22.3707 1.84664H22.1007C21.2907 0.959975 20.3457 0.453308 19.6707 0.453308C13.4607 0.453308 10.4907 7.67331 9.5457 11.4733L5.2257 12.74C3.8757 13.12 3.8757 13.12 3.7407 14.3866L0.0957031 40.7333L27.5007 45.5466L42.3507 42.5066C42.2157 42.5066 37.0857 9.57331 37.0857 9.31998ZM25.8807 6.78664C25.2057 7.03998 24.3957 7.16664 23.5857 7.41998V6.91331C23.5857 5.77331 23.4507 4.50664 23.0457 3.36664C24.3957 3.61998 25.3407 5.01331 25.8807 6.78664ZM21.4257 3.74664C21.8307 5.01331 22.1007 6.27997 22.1007 7.67331V7.79998L17.3757 9.19331C18.1857 5.89998 19.9407 4.37998 21.4257 3.74664ZM19.5357 2.09998C19.8057 2.09998 20.0757 2.22664 20.3457 2.35331C18.3207 3.23997 16.2957 5.39331 15.3507 9.82664L11.5707 10.9666C12.6507 7.54664 15.0807 2.09998 19.5357 2.09998Z" fill="#95BF47"/>
<path d="M36.68 8.94002C36.545 8.94002 32.765 8.68669 32.765 8.68669L29.93 6.02669C29.795 5.90002 29.66 5.90002 29.525 5.90002L27.5 45.5467L42.35 42.5067L37.085 9.32003C36.95 9.06669 36.815 8.94002 36.68 8.94002Z" fill="#5E8E3E"/>
<path d="M22.3692 16.54L20.4792 21.6066C19.3992 21.1 18.1842 20.8466 16.9692 20.8466C14.1342 20.8466 13.9992 22.4933 13.9992 23C13.9992 25.28 20.4792 26.1666 20.4792 31.6133C20.4792 35.92 17.5092 38.7066 13.7292 38.7066C9.00422 38.7066 6.57422 35.92 6.57422 35.92L7.78922 31.9933C7.78922 31.9933 10.2192 34.02 12.3792 34.02C13.4592 34.02 14.2692 33.26 14.2692 32.3733C14.2692 32.3733 14.2692 32.3733 14.2692 32.2466C14.2692 29.2066 9.00422 29.08 9.00422 24.0133C9.00422 19.8333 12.2442 15.78 18.7242 15.78C21.1542 15.9066 22.3692 16.54 22.3692 16.54Z" fill="white"/>
<path d="M55.1752 24.14C54.0952 23.6334 53.5552 23.1267 53.5552 22.4934C53.5552 21.7334 54.2302 21.2267 55.4452 21.2267C56.3902 21.2267 57.2002 21.48 58.0102 21.7334L58.9552 18.9467C58.9552 18.9467 58.0102 18.3134 55.4452 18.3134C51.8002 18.3134 49.2352 20.2134 49.2352 23C49.2352 24.52 50.4502 25.7867 51.9352 26.6734C53.1502 27.3067 53.6902 27.8134 53.6902 28.5734C53.6902 29.3334 53.0152 29.9667 51.8002 29.9667C50.0452 29.9667 48.4252 29.08 48.4252 29.08L47.6152 31.8667C47.6152 31.8667 49.1002 32.88 51.8002 32.88C55.5802 32.88 58.2802 31.1067 58.2802 28.0667C58.1452 26.2934 56.7952 25.0267 55.1752 24.14ZM70.1602 18.3134C68.2702 18.3134 66.7852 19.0734 65.7052 20.34L67.3252 12.4867H63.1402L59.0902 32.5H63.2752L64.6252 25.66C65.1652 23.1267 66.6502 21.48 68.0002 21.48C68.9452 21.48 69.3502 22.1134 69.3502 22.8734C69.3502 23.5067 69.3502 24.0134 69.2152 24.6467L67.5952 32.5H71.7802L73.4002 24.3934C73.5352 23.5067 73.6702 22.7467 73.6702 21.86C73.5352 19.7067 72.3202 18.3134 70.1602 18.3134ZM82.9852 18.3134C77.9902 18.3134 74.6152 22.62 74.6152 27.3067C74.6152 30.3467 76.6402 32.7534 80.4202 32.7534C85.4152 32.7534 88.6552 28.5734 88.6552 23.76C88.6552 20.9734 86.9002 18.3134 82.9852 18.3134ZM80.9602 29.84C79.4752 29.84 78.9352 28.7 78.9352 27.3067C78.9352 25.0267 80.1502 21.3534 82.4452 21.3534C83.9302 21.3534 84.4702 22.4934 84.4702 23.76C84.3352 26.1667 83.1202 29.84 80.9602 29.84ZM99.3202 18.3134C96.4852 18.3134 94.8652 20.5934 94.8652 20.5934L95.1352 18.5667H91.4902L90.6802 23.76L87.7102 38.0734H91.8952L93.1102 32.2467H93.2452C93.2452 32.2467 94.0552 32.7534 95.6752 32.7534C100.535 32.7534 103.775 28.0667 103.775 23.2534C103.64 20.72 102.425 18.3134 99.3202 18.3134ZM95.4052 29.84C94.7302 29.84 94.1902 29.5867 93.6502 29.2067L94.3252 25.5334C94.8652 23.1267 96.2152 21.48 97.5652 21.48C98.7802 21.48 99.1852 22.62 99.1852 23.6334C99.3202 26.2934 97.7002 29.84 95.4052 29.84ZM109.58 12.74C108.905 12.74 108.365 12.9934 107.825 13.3734C107.285 13.7534 107.15 14.3867 107.15 15.02C107.15 16.16 107.96 16.92 109.175 16.92C110.525 16.92 111.605 16.0334 111.605 14.7667V14.64C111.74 13.5 110.93 12.74 109.58 12.74ZM103.775 32.5H107.96L110.795 18.5667H106.61L103.775 32.5ZM121.46 18.5667H118.49L118.625 17.9334C118.895 16.54 119.705 15.4 121.055 15.4C121.46 15.4 122 15.5267 122.405 15.5267L123.215 12.4867C123.215 12.4867 122.405 12.1067 120.92 12.1067C119.435 12.1067 117.95 12.4867 116.87 13.3734C115.385 14.5134 114.71 16.16 114.44 17.8067L114.305 18.44H112.415L111.74 21.3534H113.63L111.47 32.3734H115.655L117.815 21.3534H120.65L121.46 18.5667ZM131.585 18.6934L127.805 28.1934L126.725 18.6934H122.27L124.835 31.4867C124.835 31.74 124.835 31.9934 124.7 32.12C124.16 33.0067 123.35 33.8934 122.405 34.5267C121.73 35.0334 120.92 35.4134 120.11 35.6667L121.325 38.96C122.81 38.58 124.295 37.82 125.375 36.8067C127.265 35.16 129.02 32.5 130.91 28.9534L136.04 18.6934H131.585Z" fill="#231F20"/>
</svg>
