<svg width="127" height="38" viewBox="0 0 127 38" fill="none" xmlns="http://www.w3.org/2000/svg">
<g clip-path="url(#clip0_818_2736)">
<path d="M18.9985 0.0626221C8.53743 0.0626221 0.0566406 8.54318 0.0566406 19.0043C0.0566406 29.4658 8.53743 37.9457 18.9985 37.9457C29.4607 37.9457 37.9406 29.4658 37.9406 19.0043C37.9406 8.54386 29.4607 0.0635268 18.9983 0.0635268L18.9985 0.0626221ZM27.6851 27.3819C27.3459 27.9383 26.6175 28.1148 26.0611 27.7732C21.6137 25.0567 16.0151 24.4414 9.42161 25.9479C8.78624 26.0926 8.15291 25.6945 8.00815 25.0589C7.86271 24.4233 8.25922 23.79 8.89617 23.6452C16.1117 21.9968 22.3009 22.7066 27.2938 25.7579C27.8503 26.0994 28.0267 26.8255 27.6851 27.3819ZM30.0036 22.2243C29.5761 22.9192 28.6668 23.1386 27.9724 22.7111C22.8809 19.5815 15.1196 18.6752 9.09725 20.5032C8.31622 20.7391 7.4913 20.299 7.25425 19.5193C7.01901 18.7383 7.45941 17.9149 8.23909 17.6774C15.1182 15.5901 23.6703 16.6012 29.5173 20.1943C30.2117 20.6218 30.4311 21.531 30.0036 22.2245V22.2243ZM30.2026 16.8536C24.0978 13.2276 14.0255 12.8942 8.19679 14.6632C7.26081 14.9471 6.271 14.4187 5.98736 13.4827C5.70372 12.5463 6.23164 11.5572 7.1683 11.2726C13.8592 9.24143 24.9822 9.63387 32.0108 13.8064C32.8545 14.3061 33.1305 15.3934 32.6306 16.2341C32.133 17.076 31.0427 17.3535 30.2036 16.8536H30.2026ZM51.5912 17.5485C48.3205 16.7686 47.7392 16.2212 47.7392 15.071C47.7392 13.9844 48.7616 13.2531 50.2839 13.2531C51.7586 13.2531 53.2198 13.8084 54.7534 14.9516C54.7986 14.9862 54.8574 15 54.914 14.991C54.9728 14.9824 55.0225 14.9509 55.0565 14.9037L56.6534 12.6526C56.719 12.5599 56.7009 12.4321 56.6127 12.3613C54.7873 10.8971 52.7335 10.1853 50.3314 10.1853C46.8005 10.1853 44.3328 12.3045 44.3328 15.3366C44.3328 18.5881 46.4612 19.7394 50.1391 20.6281C53.2673 21.349 53.7966 21.9529 53.7966 23.0323C53.7966 24.2288 52.729 24.973 51.0099 24.973C49.1009 24.973 47.5424 24.3283 45.8008 22.8219C45.7578 22.7835 45.699 22.7676 45.6447 22.7699C45.5859 22.7744 45.5338 22.8016 45.4977 22.8445L43.7062 24.9752C43.6316 25.0657 43.6406 25.1969 43.7266 25.2738C45.7533 27.0833 48.2459 28.0379 50.9375 28.0379C54.7421 28.0379 57.2008 25.9592 57.2008 22.7405C57.2075 20.0246 55.5812 18.5204 51.598 17.5514L51.5912 17.5485ZM65.8096 14.323C64.1607 14.323 62.808 14.9726 61.6906 16.3038V14.8055C61.6906 14.6872 61.5956 14.5908 61.478 14.5908H58.5489C58.4312 14.5908 58.3362 14.6872 58.3362 14.8055V31.4533C58.3362 31.571 58.4312 31.6682 58.5489 31.6682H61.478C61.5956 31.6682 61.6906 31.571 61.6906 31.4533V26.1989C62.808 27.4498 64.1607 28.0627 65.8096 28.0627C68.8745 28.0627 71.9778 25.7036 71.9778 21.1936C71.9823 16.6826 68.879 14.3228 65.8118 14.3228L65.8096 14.323ZM68.5714 21.1936C68.5714 23.4892 67.1577 25.0929 65.131 25.0929C63.1292 25.0929 61.6183 23.4168 61.6183 21.1936C61.6183 18.9701 63.1292 17.2945 65.131 17.2945C67.1237 17.2943 68.5714 18.9337 68.5714 21.1933V21.1936ZM79.9284 14.323C75.9814 14.323 72.8893 17.3621 72.8893 21.2426C72.8893 25.0816 75.961 28.0876 79.8809 28.0876C83.8415 28.0876 86.9426 25.0589 86.9426 21.1936C86.9426 17.3413 83.8619 14.3235 79.9284 14.3235V14.323ZM79.9284 25.1155C77.8293 25.1155 76.246 23.4281 76.246 21.1924C76.246 18.9466 77.7751 17.3169 79.8809 17.3169C81.9935 17.3169 83.5859 19.0036 83.5859 21.2415C83.5859 23.4869 82.0478 25.1155 79.9284 25.1155ZM95.3704 14.5908H92.1472V11.2961C92.1472 11.1781 92.0522 11.0817 91.9346 11.0817H89.0054C88.8878 11.0817 88.7905 11.1781 88.7905 11.2961V14.5908H87.3836C87.266 14.5908 87.171 14.6872 87.171 14.8055V17.3223C87.171 17.4404 87.266 17.537 87.3836 17.537H88.7905V24.0501C88.7905 26.6807 90.1002 28.0152 92.6855 28.0152C93.7351 28.0152 94.6059 27.7981 95.427 27.3321C95.4948 27.296 95.5356 27.2236 95.5356 27.1467V24.7491C95.5356 24.6767 95.4971 24.6066 95.4338 24.5681C95.3704 24.5274 95.2913 24.5251 95.2257 24.5591C94.6625 24.8418 94.1173 24.973 93.5066 24.973C92.5679 24.973 92.1472 24.5455 92.1472 23.591V17.5381H95.3704C95.4881 17.5381 95.583 17.4417 95.583 17.3234V14.8068C95.5876 14.6885 95.4926 14.5922 95.3727 14.5922L95.3704 14.5908ZM106.599 14.6037V14.1991C106.599 13.0086 107.055 12.4778 108.078 12.4778C108.689 12.4778 109.179 12.599 109.729 12.7822C109.797 12.8035 109.867 12.7928 109.921 12.7524C109.978 12.7119 110.009 12.647 110.009 12.5782V10.1105C110.009 10.0161 109.951 9.93267 109.858 9.90485C109.279 9.73227 108.537 9.55516 107.424 9.55516C104.721 9.55516 103.289 11.0783 103.289 13.9584V14.5782H101.882C101.765 14.5782 101.668 14.6745 101.668 14.7926V17.3223C101.668 17.4404 101.765 17.537 101.882 17.537H103.289V27.581C103.289 27.7008 103.387 27.7958 103.504 27.7958H106.431C106.551 27.7958 106.646 27.7008 106.646 27.581V17.5376H109.381L113.57 27.581C113.095 28.635 112.627 28.8454 111.989 28.8454C111.473 28.8454 110.928 28.6916 110.374 28.3862C110.322 28.3591 110.258 28.3545 110.204 28.3704C110.147 28.3907 110.1 28.4314 110.077 28.4857L109.084 30.6639C109.037 30.768 109.078 30.8879 109.177 30.9421C110.213 31.5031 111.147 31.7429 112.303 31.7429C114.465 31.7429 115.662 30.7341 116.714 28.0243L121.794 14.8969C121.821 14.8308 121.812 14.7562 121.771 14.6976C121.733 14.6395 121.667 14.6044 121.597 14.6044H118.548C118.455 14.6044 118.374 14.6625 118.345 14.7483L115.221 23.6679L111.801 14.7424C111.769 14.6594 111.69 14.6044 111.602 14.6044H106.599V14.6037ZM100.089 14.5908H97.1596C97.042 14.5908 96.9447 14.6872 96.9447 14.8055V27.581C96.9447 27.7008 97.042 27.7958 97.1596 27.7958H100.089C100.206 27.7958 100.304 27.7008 100.304 27.581V14.8064C100.304 14.6881 100.209 14.5917 100.089 14.5917V14.5908ZM98.6412 8.77344C97.4808 8.77344 96.5398 9.71259 96.5398 10.8727C96.5398 12.0335 97.4808 12.9738 98.6412 12.9738C99.8015 12.9738 100.74 12.0335 100.74 10.8727C100.74 9.71281 99.7992 8.77344 98.6412 8.77344ZM124.296 18.6987C123.138 18.6987 122.235 17.7679 122.235 16.6376C122.235 15.5074 123.149 14.566 124.307 14.566C125.465 14.566 126.368 15.4965 126.368 16.6259C126.368 17.7561 125.454 18.6987 124.296 18.6987ZM124.307 14.7709C123.251 14.7709 122.452 15.6101 122.452 16.6376C122.452 17.6648 123.246 18.4926 124.296 18.4926C125.352 18.4926 126.15 17.6541 126.15 16.6259C126.15 15.5987 125.357 14.7709 124.307 14.7709ZM124.764 16.8378L125.347 17.6539H124.854L124.33 16.9052H123.879V17.6539H123.468V15.4906H124.431C124.936 15.4906 125.266 15.7478 125.266 16.1807C125.268 16.5354 125.062 16.7521 124.766 16.8378H124.764ZM124.416 15.8618H123.879V16.546H124.416C124.682 16.546 124.843 16.4151 124.843 16.2036C124.843 15.981 124.682 15.8618 124.416 15.8618Z" fill="#1ED760"/>
</g>
<defs>
<clipPath id="clip0_818_2736">
<rect width="126.441" height="38" fill="white"/>
</clipPath>
</defs>
</svg>
