<svg width="15" height="21" viewBox="0 0 15 21" fill="none" xmlns="http://www.w3.org/2000/svg">
<path fill-rule="evenodd" clip-rule="evenodd" d="M0 2.625C0 1.17525 1.11929 0 2.5 0H8.23223C8.89528 0 9.53116 0.276562 10 0.768845L14.2678 5.25C14.7366 5.74228 15 6.40996 15 7.10616V18.375C15 19.8247 13.8807 21 12.5 21H2.5C1.11929 21 0 19.8247 0 18.375V2.625ZM2.5 10.5C2.5 9.77513 3.05964 9.1875 3.75 9.1875H11.25C11.9404 9.1875 12.5 9.77513 12.5 10.5C12.5 11.2249 11.9404 11.8125 11.25 11.8125H3.75C3.05964 11.8125 2.5 11.2249 2.5 10.5ZM3.75 14.4375C3.05964 14.4375 2.5 15.0251 2.5 15.75C2.5 16.4749 3.05964 17.0625 3.75 17.0625H11.25C11.9404 17.0625 12.5 16.4749 12.5 15.75C12.5 15.0251 11.9404 14.4375 11.25 14.4375H3.75Z" fill="#8E8E8E"/>
</svg>
