<svg width="15" height="18" viewBox="0 0 15 18" fill="none" xmlns="http://www.w3.org/2000/svg">
<path d="M5.26266 10.0707C4.87214 9.68015 4.23897 9.68015 3.84845 10.0707C3.45792 10.4612 3.45792 11.0944 3.84845 11.4849L5.26266 10.0707ZM6.33333 12.5556L5.62623 13.2627C6.01675 13.6532 6.64992 13.6532 7.04044 13.2627L6.33333 12.5556ZM10.596 9.70711C10.9865 9.31658 10.9865 8.68342 10.596 8.29289C10.2055 7.90237 9.57231 7.90237 9.18178 8.29289L10.596 9.70711ZM12.4444 4.55556V15.2222H14.4444V4.55556H12.4444ZM11.6667 16H2.77778V18H11.6667V16ZM2 15.2222V4.55556H0V15.2222H2ZM2.77778 3.77778H4.55556V1.77778H2.77778V3.77778ZM9.88889 3.77778H11.6667V1.77778H9.88889V3.77778ZM2.77778 16C2.34822 16 2 15.6518 2 15.2222H0C0 16.7563 1.24365 18 2.77778 18V16ZM12.4444 15.2222C12.4444 15.6518 12.0962 16 11.6667 16V18C13.2008 18 14.4444 16.7563 14.4444 15.2222H12.4444ZM14.4444 4.55556C14.4444 3.02143 13.2008 1.77778 11.6667 1.77778V3.77778C12.0962 3.77778 12.4444 4.126 12.4444 4.55556H14.4444ZM2 4.55556C2 4.126 2.34822 3.77778 2.77778 3.77778V1.77778C1.24365 1.77778 0 3.02143 0 4.55556H2ZM3.84845 11.4849L5.62623 13.2627L7.04044 11.8484L5.26266 10.0707L3.84845 11.4849ZM7.04044 13.2627L10.596 9.70711L9.18178 8.29289L5.62623 11.8484L7.04044 13.2627ZM6.33333 2H8.11111V0H6.33333V2ZM8.11111 3.55556H6.33333V5.55556H8.11111V3.55556ZM6.33333 3.55556C5.90378 3.55556 5.55556 3.20733 5.55556 2.77778H3.55556C3.55556 4.3119 4.79921 5.55556 6.33333 5.55556V3.55556ZM8.88889 2.77778C8.88889 3.20733 8.54067 3.55556 8.11111 3.55556V5.55556C9.64524 5.55556 10.8889 4.3119 10.8889 2.77778H8.88889ZM8.11111 2C8.54067 2 8.88889 2.34822 8.88889 2.77778H10.8889C10.8889 1.24365 9.64524 0 8.11111 0V2ZM6.33333 0C4.79921 0 3.55556 1.24365 3.55556 2.77778H5.55556C5.55556 2.34822 5.90378 2 6.33333 2V0Z" fill="#B0B0B0"/>
</svg>
