<svg width="24" height="24" viewBox="0 0 24 24" fill="none" xmlns="http://www.w3.org/2000/svg">
<path d="M3 19V10.0704M3 19C3 20.1046 3.89543 21 5 21H19C20.1046 21 21 20.1046 21 19M3 19L9.75 14.5M21 19V10.0704M21 19L14.25 14.5M3 10L9.75 14.5M21 10L14.25 14.5M14.25 14.5L13.1094 15.2604C12.4376 15.7083 11.5624 15.7083 10.8906 15.2604L9.75 14.5" stroke="#B0B0B0" stroke-width="2" stroke-linecap="round" stroke-linejoin="round"/>
<path d="M6 8.49347C6.85097 8.28688 7.2548 7.31194 6.79916 6.56414C6.09381 5.40653 7.41855 4.08179 8.57616 4.78714C9.32396 5.24278 10.2989 4.83895 10.5055 3.98798C10.8253 2.67067 12.6987 2.67067 13.0185 3.98798C13.2251 4.83895 14.2001 5.24278 14.9479 4.78714C16.1055 4.08179 17.4302 5.40653 16.7249 6.56414C16.2692 7.31194 16.6731 8.28688 17.524 8.49347M14.012 9.75C14.012 10.9926 13.0047 12 11.762 12C10.5194 12 9.51202 10.9926 9.51202 9.75C9.51202 8.50736 10.5194 7.5 11.762 7.5C13.0047 7.5 14.012 8.50736 14.012 9.75Z" stroke="#B0B0B0" stroke-width="2" stroke-linecap="round" stroke-linejoin="round"/>
</svg>
