<svg width="40" height="40" viewBox="0 0 40 40" fill="none" xmlns="http://www.w3.org/2000/svg">
<path d="M2.10986 18.3828H6C8.20914 18.3828 10 20.1737 10 22.3828V24.3828C10 26.592 11.7909 28.3828 14 28.3828C16.2091 28.3828 18 30.1737 18 32.3828V38.273M12 4.25385V7.38281C12 10.1442 14.2386 12.3828 17 12.3828H18C20.2091 12.3828 22 14.1737 22 16.3828C22 18.592 23.7909 20.3828 26 20.3828C28.2091 20.3828 30 18.592 30 16.3828C30 14.1737 31.7909 12.3828 34 12.3828L36.129 12.3828M26 37.3586V32.3828C26 30.1737 27.7909 28.3828 30 28.3828H36.129M38 20.3828C38 30.3239 29.9411 38.3828 20 38.3828C10.0589 38.3828 2 30.3239 2 20.3828C2 10.4417 10.0589 2.38281 20 2.38281C29.9411 2.38281 38 10.4417 38 20.3828Z" stroke="white" stroke-width="3" stroke-linecap="round" stroke-linejoin="round"/>
</svg>
